<svg xmlns="http://www.w3.org/2000/svg" viewBox="0 0 427.2 586.5" style="enable-background:new 0 0 427.2 586.5" xml:space="preserve"><path style="fill:#fff" d="M377.3 153.7H213.9v46.5H88l4.5 50.1v.1H214v3.3l-117 50h-.1l-.5.2h.5l4.4 49.9v.1h112.6v80.6h-.3l-55.7-15-.3-3.6-3.3-36.2v-.1h-50.5l7 78.7v.1L213.6 487l.3-.1v51.9l132.3-36.4h.1l31-348.6v-.1zm-163.2 96.7h7.3l-7.3 3.1v-3.1zm0 184.1V354H275l-5.5 65.1-55.4 15.4zm-.1 104.2zm132.1-36.5-131.9 36.3v-51.7l102.3-28.4h.1L330 303.8v-.1H214.6l30.5-13.6 89.4-39.7h.1l.5-.2h-.5l4.2-48.2.2-1.8H214.1V154H377l-30.9 348.2z"/><path style="fill:#fff" d="m0 107.2 38.2 430.6 175.2 48.7L389 537.9l38.2-430.4L0 107.2zm213.4 466.1L50.2 528 13.8 120h399.7l-36.4 408-163.7 45.3zM342.8 56.1l-11.7-11.8h11.7V0h-80.2v39.8L273.5 50h-10.9v44.2h80.2V56.1zm-9.3-46.9V35h-24.7l24.7 24.9V85h-61.8V59.2h25.1l-25.1-23.5V9.2h61.8zM252.8 56.2l-11.3-11.9h11.3V0h-80.3v39.9L183.8 50h-11.2v44.2h80.3v-38zm-9.3-47V35h-23.7l23.7 24.9V85h-61.8V59.2h26.1l-26.1-23.5V9.2h61.8zM164.8 50h-36v-5.8h36V0H84.5v94.2h80.2V50zm-9.3 9.2V85H93.8V9.2h61.8V35h-36v24.2h35.9z"/><path d="M296.8 59.2h-25V85h61.7V59.9L308.8 35h24.7V9.2h-61.7v26.6zM207.9 59.2h-26.1V85h61.7V59.9L219.8 35h23.7V9.2h-61.7v26.6zM155.5 35V9.2H93.8V85h61.7V59.2h-36V35z"/><path style="fill:#29abe2" d="M214.1 250.4v3.1l7.4-3.1z"/><path style="fill:#29abe2" d="M214.1 200.1h124.8l-.2 1.8-4.1 48.2h.4l-.5.3-89.4 39.7-30.5 13.6H330v.1l-13.5 154.6h-.1l-102.3 28.5v51.6l132-36.3L377 153.9H214.1z"/><path style="fill:#29abe2" d="M275 353.9h-60.9v80.6l55.4-15.4z"/><path style="fill:#0071bc" d="m13.8 119.9 36.4 408 163.2 45.3 163.7-45.4 36.4-408H13.8zm332.4 382.6-132.3 36.4V487l-.3.1-102.9-28.5v-.1l-7-78.7h50.5v.1l3.3 36.2.3 3.6 55.7 15h.3v-80.6H101.3v-.1l-4.4-49.9h-.5l.5-.2h.1l116.9-50v-3.3H92.4v-.1L88 200.1h125.9v-46.5h163.4v.1l-31.1 348.8z"/></svg>