<svg width="53" height="68" fill="none" xmlns="http://www.w3.org/2000/svg"><path d="M1 1c5.913.986 25.606 9.936 26.042 19.083.181 3.807-1.726 9.134-4.875 11.584-6.763 5.26-17.989-1.758-8.667-8.167 5.228-3.594 12.698-.679 17.958 1.458C38.5 28.5 38.5 28.5 43.333 35.25c5.667 9.25 5.279 22.556 4.167 22M49.75 64c-1.124-.612-9.577-5.574-8.625-4.833 1.246.969 2.632 1.84 3.75 2.958 1.323 1.323 2.958 2.291 4.125 3.75 1.024 1.28 3-7.114 3-8.625" stroke="#F2F2F2" stroke-width="2" stroke-linecap="round"/></svg>