<svg xmlns="http://www.w3.org/2000/svg" viewBox="0 0 275.8 258" style="enable-background:new 0 0 275.8 258" xml:space="preserve"><path style="fill:#fff" d="m251 100.7-7.4 9.5 7.4-9.5zM274.9 141.6 232.2 10.3C230.2 4.1 224.5 0 218 0c-6.5 0-12.2 4.1-14.1 10.3l-26.1 80.4H98.1L72 10.3C70 4.1 64.3 0 57.8 0c-6.5 0-12.2 4.1-14.1 10.3 0 0-25.4 78.3-28.1 86.6l-.2.8v.1L1 141.6c-2.7 8.2.2 17 7.2 22.1L137.9 258l129.8-94.3c6.9-5 9.8-13.9 7.2-22.1zm-13.1 14-123.9 90-123.9-90a9.78 9.78 0 0 1-3.5-10.9l14.3-44.1 28.4-87.3c1.5-4.5 7.8-4.5 9.3 0l28.4 87.3H185l28.4-87.3c1.5-4.5 7.8-4.5 9.3 0l28.4 87.3 14.3 44.1c1.3 4.1-.2 8.5-3.6 10.9zM160.2 217.1l-22.3 28.6 22.3-28.6zM32.2 110.2l-7.4-9.5z"/><path style="fill:#e24329" d="m137.9 245.7 47.1-145H90.8zM137.9 245.7zM137.9 245.7z"/><path style="fill:#fc6d26" d="m24.8 100.7 7.4 9.5 83.5 106.9 22.2 28.6-47.1-145zM24.8 100.7z"/><path style="fill:#fca326" d="M24.8 100.7zM137.9 245.7l-22.3-28.5-83.4-107-7.4-9.5-14.3 44.1c-1.3 4 .1 8.4 3.5 10.9l123.9 90z"/><path style="fill:#e24329" d="M24.8 100.7h66L62.4 13.4c-1.5-4.5-7.8-4.5-9.3 0 .1 0-28.3 87.3-28.3 87.3z"/><path style="fill:#fc6d26" d="M251 100.7zM137.9 245.7l22.3-28.6 83.4-106.9 7.4-9.5h-66z"/><path style="fill:#fca326" d="m251 100.7-7.4 9.5-83.4 106.9-22.3 28.5 123.9-90c3.4-2.5 4.8-6.9 3.5-10.9l-14.3-44z"/><path style="fill:none;stroke:#e24329;stroke-width:0;stroke-linecap:round;stroke-linejoin:round" d="M251 100.7h0"/><path style="fill:#e24329" d="m251 100.7-28.4-87.3c-1.5-4.5-7.8-4.5-9.3 0L185 100.7h66z"/></svg>