<svg xmlns="http://www.w3.org/2000/svg" viewBox="0 0 474.99 530"><path d="m307.68 129.94 81.97 141.97v-55.93a59.066 59.066 0 0 1-25.84-23.94c-6.17-10.73-8.6-22.62-7.72-34.15l-48.41-27.95zM155.52 393.38l48.37 27.93c9.58-6.57 21.16-10.43 33.62-10.43s24.93 4.16 34.71 11.21l49.71-28.7H155.51zM111.22 192.04c-6.08 10.57-15.05 18.82-25.84 23.96v55.99l82.1-142.2-48.55 28.03c.9 11.55-1.53 23.46-7.71 34.22zM363.69 337.96c.82-1.42 1.69-2.78 2.61-4.12L242.21 118.91c-1.55.12-3.11.2-4.69.2s-3.11-.08-4.65-.2L108.75 333.89c.9 1.29 1.76 2.62 2.56 4 .81 1.41 1.54 2.84 2.22 4.28h247.96c.68-1.43 1.4-2.84 2.19-4.22z" style="fill:none"/><path d="M269.51 90.58c-.39.4-.79.8-1.19 1.18l134.61 233.15c.57-.16 1.14-.32 1.72-.46V205.51c-11.34-2.82-21.56-10.04-27.84-20.95-6.25-10.88-7.41-23.28-4.23-34.47L269.5 90.58zm94.3 101.45a59.066 59.066 0 0 0 25.84 23.94v55.93l-81.97-141.97 48.41 27.95c-.88 11.53 1.55 23.41 7.72 34.14zM372.86 381.3c-.31-.96-.57-1.94-.81-2.92H102.97c-.14.58-.3 1.15-.46 1.72l102.91 59.42c8.1-8.41 19.47-13.64 32.09-13.64s24.81 5.6 32.95 14.54l102.39-59.12zm-135.34 29.57c-12.47 0-24.05 3.86-33.62 10.43l-48.37-27.93h166.42l-49.71 28.7c-9.78-7.04-21.77-11.21-34.71-11.21z" style="fill:#fff"/><path d="M472.96 352.39c-4.1-15.39-14-28.28-27.89-36.3-1.38-.8-2.8-1.52-4.22-2.19v-97.73c1.49-.7 2.96-1.46 4.41-2.29 28.35-16.46 38.13-52.96 21.78-81.41-16.46-28.35-52.96-38.13-81.41-21.78-1.46.85-2.85 1.76-4.21 2.71l-84.56-48.82c.14-1.65.23-3.32.23-5.01 0-32.84-26.72-59.56-59.56-59.56s-59.56 26.72-59.56 59.56c0 1.66.09 3.31.22 4.94l-84.62 48.86c-1.36-.95-2.75-1.86-4.21-2.7-13.78-7.92-29.84-10.02-45.21-5.91-15.4 4.12-28.25 13.99-36.18 27.78-7.93 13.77-10.03 29.82-5.91 45.19 4.12 15.4 13.99 28.25 27.78 36.18 1.43.82 2.88 1.57 4.35 2.26v97.74c-1.44.68-2.87 1.41-4.28 2.22C1.56 332.59-8.22 369.09 8.1 397.48c10.97 19.08 31.06 29.77 51.72 29.77 10.07 0 20.28-2.54 29.63-7.88l.09-.05c1.39-.81 2.73-1.68 4.03-2.58l84.6 48.85c-.13 1.61-.22 3.22-.22 4.86 0 32.84 26.72 59.56 59.56 59.56s59.56-26.72 59.56-59.56c0-2.19-.13-4.35-.36-6.48l83.4-48.15a60.39 60.39 0 0 0 5.44 3.54c9.17 5.27 19.35 7.96 29.66 7.96 5.18 0 10.41-.68 15.55-2.06 15.4-4.12 28.24-13.98 36.17-27.76 7.98-13.76 10.12-29.77 6.03-45.1zM453.93 390c-12.26 21.32-39.58 28.6-60.9 16.34a44.294 44.294 0 0 1-11.01-8.95L279.81 456.4c1.46 4.41 2.26 9.13 2.26 14.04 0 24.51-19.92 44.56-44.56 44.56s-44.56-19.92-44.56-44.56c0-4.38.64-8.61 1.81-12.6L91.95 398.48a44.661 44.661 0 0 1-9.96 7.86c-21.45 12.26-48.65 4.98-60.9-16.34-12.26-21.32-4.98-48.52 16.34-60.9a44.62 44.62 0 0 1 11.75-4.69V205.62c-4.07-.97-8.07-2.53-11.87-4.72-21.32-12.26-28.6-39.58-16.34-60.9 12.26-21.32 39.58-28.6 60.9-16.34 3.81 2.22 7.17 4.91 10.06 7.96l102.86-59.39a44.457 44.457 0 0 1-1.83-12.67c0-24.64 19.92-44.56 44.56-44.56s44.56 19.92 44.56 44.56c0 4.43-.65 8.7-1.85 12.73l102.83 59.37c2.89-3.07 6.27-5.78 10.1-8.01 21.32-12.26 48.52-4.98 60.9 16.34 12.26 21.32 4.98 48.52-16.34 60.9a44.924 44.924 0 0 1-11.87 4.72V324.4c4.02.98 7.98 2.52 11.75 4.69 21.45 12.39 28.73 39.58 16.34 60.9z" style="fill:#fff"/><path d="M372 357.19c.98-4.02 2.52-7.98 4.69-11.75a44.57 44.57 0 0 1 7.85-10L249.96 102.35c-3.95 1.14-8.12 1.77-12.44 1.77s-8.47-.62-12.41-1.76L90.51 335.5c3 2.86 5.65 6.18 7.84 9.94a44.62 44.62 0 0 1 4.69 11.75h268.97zm-260.69-19.28c-.8-1.38-1.67-2.71-2.56-4l124.12-214.98c1.53.12 3.08.2 4.65.2s3.14-.08 4.69-.2L366.3 333.86c-.92 1.33-1.8 2.7-2.61 4.12-.8 1.38-1.52 2.8-2.19 4.22H113.53c-.68-1.44-1.41-2.87-2.22-4.28zM98.22 184.56c-6.27 10.91-16.49 18.13-27.83 20.95v118.95c.59.14 1.17.3 1.75.47l134.6-233.14c-.43-.41-.86-.83-1.27-1.26l-103.05 59.5c3.21 11.21 2.06 23.63-4.21 34.53zm69.27-54.78-82.1 142.2v-55.99c10.79-5.14 19.76-13.39 25.84-23.96 6.18-10.75 8.61-22.67 7.71-34.22l48.55-28.03z" style="fill:#fff"/><path d="M437.59 329.1a44.62 44.62 0 0 0-11.75-4.69V205.62c4.07-.97 8.07-2.53 11.87-4.72 21.32-12.38 28.6-39.58 16.34-60.9-12.39-21.32-39.58-28.6-60.9-16.34a44.593 44.593 0 0 0-10.1 8.01L280.22 72.3a44.58 44.58 0 0 0 1.85-12.73c0-24.64-19.92-44.56-44.56-44.56s-44.56 19.92-44.56 44.56c0 4.4.65 8.65 1.83 12.67L91.92 131.63a44.671 44.671 0 0 0-10.06-7.96c-21.32-12.26-48.65-4.98-60.9 16.34-12.26 21.32-4.98 48.65 16.34 60.9 3.81 2.19 7.81 3.74 11.87 4.72v118.79c-4.02.98-7.98 2.52-11.75 4.69-21.32 12.39-28.6 39.58-16.34 60.9 12.26 21.32 39.45 28.6 60.9 16.34a44.95 44.95 0 0 0 9.96-7.86l102.81 59.36c-1.17 4-1.81 8.22-1.81 12.6 0 24.64 19.92 44.56 44.56 44.56s44.56-20.05 44.56-44.56c0-4.91-.8-9.62-2.26-14.04l102.21-59.01c3.09 3.47 6.77 6.51 11.01 8.95 21.32 12.26 48.65 4.98 60.9-16.34 12.39-21.32 5.11-48.52-16.34-60.9zm-334.56 28.09c-.98-4.02-2.52-7.98-4.69-11.75a44.985 44.985 0 0 0-7.84-9.94l134.61-233.14c3.94 1.14 8.1 1.76 12.41 1.76s8.49-.62 12.44-1.77l134.58 233.09a44.347 44.347 0 0 0-7.85 10 44.62 44.62 0 0 0-4.69 11.75H103.03zM372.59 150.1c-3.18 11.19-2.03 23.59 4.23 34.47 6.27 10.91 16.49 18.13 27.84 20.95v118.94c-.58.14-1.15.29-1.72.46L268.33 91.77c.4-.39.8-.78 1.19-1.18L372.6 150.1zM205.47 90.54c.41.43.84.85 1.27 1.26L72.13 324.94c-.58-.17-1.16-.33-1.75-.47V205.52c11.34-2.82 21.56-10.04 27.83-20.95 6.26-10.9 7.41-23.33 4.21-34.53l103.05-59.5zm65 349.89c-8.15-8.94-19.88-14.54-32.95-14.54s-23.99 5.23-32.09 13.64l-102.91-59.42c.16-.57.32-1.14.46-1.72h269.07c.24.98.5 1.96.81 2.92l-102.39 59.12z" style="fill:#e535ab"/></svg>