<svg xmlns="http://www.w3.org/2000/svg" viewBox="0 0 87.1 118" style="enable-background:new 0 0 87.1 118" xml:space="preserve"><path style="fill:#fff;stroke:#fff;stroke-width:6;stroke-miterlimit:10" d="m3.3 23.7 7.5 81.9 32.8 9.3 32.7-9.3 7.5-81.9z"/><path style="fill:#fff;stroke:#fff;stroke-width:3;stroke-miterlimit:10" d="m3.3 23.7 7.5 81.9 32.8 9.3 32.7-9.3 7.5-81.9zM32.4 6.6v10.2h5.2V6.6H42V1.5H27.9v5.1zM15.9 11.7h4.7v5.1h5.1V1.5h-5.1v5.1h-4.7V1.5h-5.1v15.3h5.1zM49.3 9.2l3.5 5.5L56.4 9v7.8h5V1.5H56l-3.2 5.2-3.2-5.2h-5.3v15.3h5zM76.3 11.7h-7.1V1.5H64v15.3h12.3z"/><path style="fill:#e44f26" d="M83.8 23.7H3.3l7.6 81.9 32.7 9.3 32.7-9.3 7.5-81.9z"/><path style="fill:#010101" d="M20.6 6.6h-4.7V1.5h-5.1v15.3h5.1v-5.1h4.7v5.1h5.1V1.5h-5.1v5.1zm35.8-5.1H56l-3.2 5.2-3.2-5.2h-5.3v15.3h5V9.2l3.5 5.5L56.4 9v7.8h5V1.5h-5zM27.9 6.6h4.5v10.1h5.1V6.6H42V1.5H27.9v5.1zm41.3 5V1.5H64v15.3h12.3v-5.1l-7.1-.1z"/><path style="fill:#f1662a" d="M43.6 30.4V108l26.5-7.5 6.4-70.1H43.6z"/><path style="fill:#fff" d="M68.9 40.4H18.2L21 71.1l.1-.2h34.6l-1.1 13-11 3.2-11.2-3.2-.7-7.9H21.5L23 91.7l20.6 5.8 20.6-5.8L67 60.9H30.3l-1-10.3H68l.9-10.2z"/><path style="fill:#ebebeb" d="M43.6 40.4H18.2L21 71.1l.1-.2h22.4v-10H30.3l-1-10.3h14.2V40.4h.1zM31.7 76H21.5L23 91.7l20.6 5.8V87.1l-11.2-3.2c-.1-.1-.7-7.9-.7-7.9z"/></svg>