<svg xmlns="http://www.w3.org/2000/svg" viewBox="0 0 547.53 563.63"><path d="m547.02 336.37.34-.72-1.89-5.71c-4.91-14.9-17.56-25.25-33.83-27.69-5.7-.85-11.88-.72-18.79.4 18.16-35.1 32.49-72.07 41.63-107.5 15.8-61.21 13.92-104.88-5.59-129.8C495.99 23.29 448.18.7 390.65.02c-30.57-.36-56.28 5.84-66.92 8.85-11.76-1.89-24.31-2.95-37.33-3.15-25.51-.41-48.66 4.7-68.85 15.23-10.44-3.28-25.88-7.53-43.35-10.39-50.31-8.27-91.35-1.49-121.98 20.15C14.72 57.19-2.73 102.12.35 164.23c.93 18.73 11.24 75.17 27.43 128.23 9.38 30.73 19.45 56.38 29.93 76.25 16.13 30.57 34.15 48.82 55.12 55.81 9.62 3.2 28.39 6.6 48.8-4.97 8.81 6.25 18.39 9.55 25.15 11.24 17.2 4.31 33.84 5.13 49.45 2.46.89-.15 1.79-.32 2.68-.5.02.71.05 1.41.08 2.1 1.15 28.54 3.17 50.95 9.32 67.53.18.49.4 1.16.64 1.9l.3.92c2.96 9.07 8.46 25.94 22.85 39.52 9.16 8.63 25.28 18.91 50.11 18.91h.02c6.95 0 14.27-.81 21.77-2.42 24.35-5.21 49.45-13.68 68-40.09 16.45-23.42 24.76-56.71 26.79-107.55 20.47-.51 42.48-5.04 57.27-11.91 11.87-5.51 23.06-12.71 31.52-20.28 19.02-17.03 21.26-33.61 19.46-45.02zm-29.45 33.82c-7.37 6.6-17.25 12.94-27.83 17.85-15.22 7.07-40.02 11.37-60.28 10.44l-.94-.06-3.64-.32c-.11.92-.22 1.85-.32 2.76-.16 1.34-.32 2.75-.5 4.23-1.36 52.23-8.87 85.38-24.33 107.39-16.35 23.28-38.95 29.78-58.86 34.04-6.8 1.46-13 2.09-18.63 2.09v.02c-19.42 0-32.11-7.55-39.82-14.83-11.59-10.94-16.15-24.91-18.88-33.26-.43-1.31-.83-2.54-1.13-3.36-5.46-14.74-7.31-35.82-8.4-62.93-.16-4.06-.28-8.43-.4-12.67-.07-2.57-.16-5.68-.27-8.98a83.35 83.35 0 0 1-19.6 5.86c-13.55 2.32-28.12 1.57-43.28-2.22-10.28-2.57-20.94-7.77-27.57-15.74-18.31 15.22-35.7 12.98-45.28 9.79-17.11-5.71-32.34-21.6-46.58-48.58-10.04-19.03-19.75-43.8-28.85-73.63-15.84-51.89-25.9-106.61-26.8-124.6-2.83-56.64 12.49-97.2 45.53-120.54 27.29-19.28 64.6-25.2 110.89-17.6 19.68 3.23 36.72 8.29 47.35 11.88 19.18-11.38 41.67-16.92 67.04-16.52 13.56.22 26.48 1.4 38.49 3.52 12.9-4 37.65-9.55 65.81-9.22 52.82.63 96.6 21.23 126.61 59.57 20.54 26.25 12.91 78.01 2.88 116.81-11.23 43.48-30.74 89.67-54.72 130.17 6.35-.18 15.06-1.1 26.8-3.52 6.74-1.39 12.43-1.7 17.39-.96 10.54 1.58 18.69 8.14 21.8 17.56 2.71 8.21 2.54 21.04-13.67 35.56z" style="fill:#fff"/><path d="M531.24 334.62c-3.11-9.42-11.26-15.98-21.8-17.56-4.96-.74-10.65-.43-17.39.96-11.74 2.42-20.45 3.34-26.8 3.52 23.98-40.5 43.49-86.69 54.72-130.17 10.03-38.8 17.66-90.56-2.88-116.81-30.01-38.34-73.79-58.94-126.61-59.57-28.16-.33-52.91 5.22-65.81 9.22-12.01-2.12-24.93-3.3-38.49-3.52-25.37-.4-47.86 5.14-67.04 16.52-10.63-3.59-27.67-8.65-47.35-11.88-46.29-7.6-83.6-1.68-110.89 17.6-33.04 23.34-48.36 63.9-45.53 120.54.9 17.99 10.96 72.71 26.8 124.6 9.1 29.83 18.81 54.6 28.85 73.63 14.24 26.98 29.47 42.87 46.58 48.58 9.58 3.19 26.97 5.43 45.28-9.79 6.63 7.97 17.29 13.17 27.57 15.74 15.16 3.79 29.73 4.54 43.28 2.22a83.35 83.35 0 0 0 19.6-5.86c.11 3.3.2 6.41.27 8.98.12 4.24.24 8.61.4 12.67 1.09 27.11 2.94 48.19 8.4 62.93.3.82.7 2.05 1.13 3.36 2.73 8.35 7.29 22.32 18.88 33.26 7.71 7.28 20.4 14.83 39.82 14.83v-.02c5.63 0 11.83-.63 18.63-2.09 19.91-4.26 42.51-10.76 58.86-34.04 15.46-22.01 22.97-55.16 24.33-107.39.18-1.48.34-2.89.5-4.23.1-.91.21-1.84.32-2.76l3.64.32.94.06c20.26.93 45.06-3.37 60.28-10.44 10.58-4.91 20.46-11.25 27.83-17.85 16.21-14.52 16.38-27.35 13.67-35.56zM291.12 523.23c-11.03-9.29-16.06-21.86-18.76-28.62-5.69-14.23-7.67-60.92-7.27-108.31-12.98 11.74-29.22 17.79-47.67 17.79h-.01c-7.58 0-15.54-1.02-23.8-3.09-2.37-.59-23.17-6.18-22.89-19.47.25-12.17 17.61-15.75 24.15-17.09 22.98-4.73 24.46-6.62 31.6-15.68 1.45-1.84 3.15-3.99 5.22-6.44-.02-.27-.05-.54-.07-.81-10.3-.28-20.37-3.02-29.54-7.94-6.19 6.59-23.03 24.77-41.08 46.48-10.85 13.05-21.28 16.88-29.79 16.88-3.47-.01-6.62-.65-9.35-1.56-23.32-7.78-45.49-45.6-65.88-112.4-15.49-50.76-25.31-103.76-26.17-120.99-2.56-51.21 10.65-87.46 39.28-107.73 51.21-36.27 133.92-8.47 152.07-1.68 17.83-12.17 39.37-18.11 64.29-17.7 13.59.22 26.07 1.97 37.53 4.82 5.46-2.39 33.47-10.81 66.62-10.5 48.25.51 88.12 19.13 115.28 53.83 18.33 23.42 6.23 80.44.18 103.87-12.59 48.73-35.91 100.99-64.27 144.2 4.32 3.16 17.4 8.35 53.83.83 12.29-2.54 19.69-.3 21.98 6.65 4.44 13.43-20.04 28.88-33.6 35.18-12.07 5.6-31.32 9.15-48.01 9.15-8 0-15.4-.83-21.14-2.62-2.72 25.04-8.51 71.7-11.88 91.24-6.31 36.57-22.61 53.16-60.14 61.21-6.09 1.3-11.85 1.96-17.28 1.96h-.02c-13.18 0-24.38-3.82-33.44-11.46z"/><path d="M424.31 243.28c-1.11-9.25-2.26-18.82-1.96-28.02.3-9.45 1.5-17.24 2.66-24.78 1.08-7 2.1-13.71 2.22-21.1-17.64-2.17-37.88-1.68-45.88 9.75-6.29 8.99-5.49 25.28 2.31 47.12 7.1 19.86 18.16 39.7 25.48 52.83 3.33 5.98 5.74 10.29 6.85 12.98 1.23 2.97 2.56 5.66 3.95 8.12 8.92-18.98 6.62-38.21 4.37-56.9zm-14.16-57.12c-1.44 1.51-4.47 4.13-8.59 4.7-.53.07-1.06.11-1.58.11-6.18 0-11.4-4.94-11.81-7.83-.51-3.72 5.56-6.54 11.82-7.42 6.26-.87 12.87.19 13.39 3.9.23 1.67-1.03 4.23-3.23 6.54zM149.54 370.5c16.9-20.34 32.79-37.65 40.09-45.46a73.467 73.467 0 0 1-5.31-5.01c-16.41-17.12-23.88-40.84-20.49-65.07 3.65-26.08 2.28-49.1 1.55-61.48-.2-3.21-.33-5.58-.34-7.3 0-.05-.01-.1-.01-.15-.08-3.15-1.54-77.75 41.51-121.23.36-.37.73-.72 1.1-1.08-26.01-8.47-90.61-25.13-129.92 2.74-24.16 17.14-35.26 49.03-32.97 94.78.72 14.47 9.88 66.06 25.54 117.37 18.1 59.3 38.63 96.69 56.32 102.6 2.71.91 10.97 3.66 22.93-10.71z" style="fill:#336791"/><path d="M391.48 44.15c-17.08-.38-32.32 1.77-43.46 4.08 25.91 11.43 44.89 28.39 57.9 43.54 23.79 27.7 35.47 58.3 36.43 68.52.15 1.57.03 2.89-.25 4.01.38 10.66-.99 19.7-2.34 28.44-1.09 7.09-2.22 14.43-2.5 22.98-.26 8.07.77 16.66 1.86 25.75 2.66 22.16 5.65 47.16-9.64 72.43.26.33.52.65.77.96.61.76 1.2 1.51 1.78 2.25 25.81-40.72 46.93-88.89 58.58-133.96 13.5-52.25 9.79-81.64 2.52-90.93-24.22-30.94-58.42-47.12-101.65-48.07z" style="fill:#336791"/><path d="M387.27 468.98c4.02-23.32 11.94-89.28 13.07-103.45-1.39-28.12 13.78-33.75 22.22-36.18-1.08-1.55-2.5-3.33-3.97-5.16-4.79-5.98-11.34-14.17-16.4-26.44-.77-1.88-3.24-6.29-6.09-11.4-7.56-13.56-18.99-34.05-26.5-55.08-9.77-27.35-9.93-47.2-.49-60.7 9.61-13.74 28.57-19.24 56.45-16.41-3.71-11.01-13-31.43-30.15-51.7-19.9-23.52-55.18-51.75-110.18-52.65-27.94-.46-50.83 8.11-68.03 25.46-27.32 27.56-34.63 71.12-36.56 94.43 1.28-.71 2.65-1.45 4.14-2.21 6.93-3.51 20.81-9.64 35.99-11.21 25.32-2.62 42.02 8.67 47.03 31.8 13.35 61.76 1.05 89.09-7.93 109.05-1.66 3.7-3.24 7.19-4.49 10.56l-1.11 2.99c-2.66 7.11-5.11 13.68-6.52 19.5 6.6-1.68 12.1.59 15.11 1.83 7.55 3.13 13.84 10.68 16.42 19.7.41 1.44.71 2.87.91 4.28.24.77.37 1.59.35 2.45-1.73 62.01.71 118.16 5.69 130.61 7.72 19.29 19.42 36.16 52.49 29.07 31.89-6.84 43.24-18.32 48.55-49.14z" style="fill:#336791"/><path d="M197.26 386.52c19.92 4.99 47.67 5.33 66.72-21.33 2.26-3.16 1.57-7.22.95-9.36-1.3-4.53-4.5-8.65-7.78-10.01-4.06-1.68-6.29-2.6-11.18 2.86-3.28 3.66-5.65 6.67-7.74 9.33-9.12 11.57-13.29 15.5-40.32 21.07-5.58 1.15-8.8 2.31-10.61 3.16 2.17 1.48 5.85 3.25 9.96 4.28zM433.06 343.94c-.76-.5-1.46-1.01-2.09-1.53-1.02.36-2.08.65-3.17.96-6.9 1.94-13.42 3.77-12.57 21.29h.01c1.81 1.48 9.52 3.89 24.69 3.18 13.72-.64 28.17-3.65 36.81-7.66 10.04-4.66 17.12-9.86 21.26-13.73-.11.02-.22.04-.34.07-30.68 6.33-52.41 5.46-64.6-2.58zM240.26 305.48l1.11-2.97c1.43-3.84 3.1-7.56 4.87-11.49 8.59-19.07 19.27-42.81 6.96-99.77-2.38-11-8.1-17.4-17.5-19.55-20.58-4.72-49.44 10.75-55.67 16.27.06 1.26.15 2.84.26 4.64.76 12.89 2.19 36.88-1.67 64.43-2.75 19.67 3.26 38.87 16.48 52.67 10.4 10.85 24.08 16.86 38.14 16.9 1.62-6.63 4.22-13.62 7.02-21.13zm6.07-117.2c-.34 2.46-2.72 4.86-4.83 6.29-2.53 1.71-5.38 2.61-8.18 2.61h-.01c-.59.01-1.19-.03-1.77-.11-3.95-.55-7.93-3.03-10.66-6.65-.96-1.28-2.53-3.75-2.22-5.99.12-.85.55-2.08 1.95-3.14 2.49-1.88 7.41-2.58 12.84-1.83 3.34.46 6.44 1.43 8.73 2.71 4.03 2.25 4.33 4.79 4.15 6.11z" style="fill:#336791"/><path d="M324.56 534.69h.02c5.43 0 11.19-.66 17.28-1.96 37.53-8.05 53.83-24.64 60.14-61.21 3.37-19.54 9.16-66.2 11.88-91.24 5.74 1.79 13.14 2.61 21.14 2.61 16.69 0 35.94-3.54 48.01-9.14 13.56-6.3 38.04-21.75 33.6-35.18-2.29-6.95-9.69-9.19-21.98-6.65-36.43 7.51-49.51 2.33-53.83-.83 28.36-43.21 51.68-95.47 64.27-144.2 6.05-23.43 18.15-80.45-.18-103.87-27.16-34.7-67.03-53.32-115.28-53.83-33.16-.31-61.17 8.11-66.62 10.5-11.45-2.85-23.93-4.6-37.53-4.82-24.91-.41-46.46 5.54-64.29 17.7-18.15-6.8-100.87-34.6-152.07 1.68-28.63 20.27-41.84 56.52-39.28 107.73.86 17.23 10.68 70.23 26.17 120.99 20.39 66.8 42.56 104.62 65.88 112.4 2.73.91 5.88 1.55 9.35 1.55 8.51.01 18.94-3.82 29.79-16.87 18.05-21.71 34.9-39.89 41.08-46.48 9.17 4.92 19.24 7.66 29.54 7.94.02.27.04.54.07.81-2.07 2.45-3.77 4.6-5.22 6.44-7.14 9.06-8.62 10.95-31.6 15.68-6.54 1.34-23.9 4.92-24.15 17.09-.28 13.29 20.52 18.88 22.89 19.47 8.26 2.07 16.22 3.09 23.8 3.09 18.45 0 34.69-6.06 47.67-17.79-.4 47.39 1.57 94.08 7.27 108.31 2.7 6.76 7.73 19.33 18.76 28.62 9.06 7.64 20.26 11.47 33.44 11.47zm14.16-16.58c-33.07 7.09-44.77-9.78-52.49-29.07-4.98-12.45-7.42-68.6-5.69-130.61.02-.85-.11-1.68-.35-2.45-.2-1.41-.5-2.84-.91-4.28-2.58-9.02-8.87-16.57-16.42-19.7-3-1.24-8.5-3.51-15.11-1.83 1.41-5.82 3.86-12.38 6.52-19.5l1.11-2.99c1.25-3.37 2.83-6.86 4.49-10.56 8.98-19.96 21.28-47.29 7.93-109.05-5.01-23.13-21.71-34.42-47.03-31.8-15.18 1.57-29.06 7.7-35.99 11.21-1.5.76-2.87 1.49-4.14 2.21 1.93-23.31 9.24-66.87 36.56-94.43 17.2-17.35 40.09-25.92 68.03-25.46 55 .9 90.28 29.13 110.18 52.65 17.15 20.27 26.44 40.69 30.15 51.7-27.88-2.83-46.84 2.67-56.45 16.41-9.44 13.5-9.28 33.35.49 60.7 7.51 21.03 18.94 41.52 26.5 55.08 2.85 5.11 5.32 9.52 6.09 11.4 5.06 12.27 11.61 20.46 16.4 26.44 1.47 1.83 2.89 3.61 3.97 5.16-8.44 2.43-23.61 8.06-22.22 36.18-1.13 14.17-9.05 80.13-13.07 103.45-5.31 30.82-16.66 42.3-48.55 49.14zm138.02-157.94c-8.64 4.01-23.09 7.02-36.81 7.66-15.17.71-22.88-1.7-24.69-3.18h-.01c-.85-17.52 5.67-19.35 12.57-21.29 1.09-.31 2.15-.6 3.17-.96.63.52 1.33 1.03 2.09 1.53 12.19 8.04 33.92 8.91 64.6 2.58.12-.03.23-.05.34-.07-4.14 3.87-11.22 9.07-21.26 13.73zm-60.75-68.12c-1.11-2.69-3.52-7-6.85-12.98-7.32-13.13-18.38-32.97-25.48-52.83-7.8-21.84-8.6-38.13-2.31-47.12 8-11.44 28.24-11.93 45.88-9.75-.12 7.39-1.14 14.1-2.22 21.1-1.16 7.54-2.36 15.33-2.66 24.78-.3 9.2.85 18.77 1.96 28.02 2.24 18.68 4.55 37.92-4.37 56.9a73.18 73.18 0 0 1-3.95-8.12zm74.62-108.91c-11.65 45.07-32.77 93.24-58.58 133.96-.58-.74-1.17-1.48-1.78-2.25-.25-.32-.51-.64-.77-.96 15.29-25.27 12.3-50.26 9.64-72.43-1.09-9.09-2.12-17.68-1.86-25.75.28-8.55 1.41-15.89 2.5-22.98 1.35-8.74 2.72-17.77 2.34-28.44.28-1.12.4-2.44.25-4.01-.96-10.22-12.64-40.82-36.43-68.52-13.01-15.15-31.99-32.1-57.9-43.54 11.14-2.31 26.38-4.46 43.46-4.08 43.23.95 77.43 17.13 101.65 48.07 7.27 9.29 10.98 38.68-2.52 90.93zM70.29 278.6c-15.66-51.31-24.82-102.9-25.54-117.37-2.29-45.75 8.81-77.64 32.97-94.78 39.31-27.87 103.91-11.21 129.92-2.74-.37.36-.74.72-1.1 1.08-43.05 43.48-41.59 118.08-41.51 121.23 0 .05 0 .1.01.15.01 1.72.14 4.08.34 7.3.73 12.38 2.1 35.4-1.55 61.48-3.39 24.23 4.08 47.95 20.49 65.07 1.7 1.77 3.48 3.44 5.31 5.01-7.3 7.82-23.19 25.12-40.09 45.46-11.96 14.37-20.22 11.62-22.93 10.71-17.69-5.91-38.22-43.3-56.32-102.6zm124.81 31.1c-13.22-13.8-19.23-33-16.48-52.67 3.86-27.55 2.43-51.54 1.67-64.43-.11-1.8-.2-3.38-.26-4.63 6.23-5.53 35.09-21 55.67-16.28 9.4 2.15 15.12 8.55 17.5 19.55 12.31 56.96 1.63 80.7-6.96 99.77-1.77 3.93-3.44 7.65-4.87 11.49l-1.11 2.97c-2.8 7.51-5.4 14.5-7.02 21.13-14.06-.04-27.74-6.05-38.14-16.9zm43.13 48.3c2.09-2.66 4.46-5.67 7.74-9.33 4.89-5.46 7.12-4.54 11.18-2.86 3.28 1.36 6.48 5.48 7.78 10.01.62 2.14 1.31 6.2-.95 9.36-19.05 26.66-46.8 26.32-66.72 21.33-4.1-1.03-7.79-2.8-9.96-4.28 1.81-.85 5.03-2.01 10.61-3.16 27.03-5.57 31.2-9.5 40.32-21.07zM217.43 404.09h-.01.01z" style="fill:#fff"/><path d="M220.61 181.29c-1.4 1.06-1.83 2.29-1.95 3.14-.31 2.24 1.26 4.71 2.22 5.99 2.73 3.62 6.71 6.1 10.66 6.65.58.08 1.18.12 1.77.12h.01c2.8-.01 5.65-.91 8.18-2.62 2.11-1.43 4.49-3.83 4.83-6.29.18-1.32-.12-3.86-4.15-6.11-2.29-1.28-5.39-2.25-8.73-2.71-5.43-.75-10.35-.05-12.84 1.83zM399.99 175.72c-6.26.88-12.33 3.7-11.82 7.42.41 2.89 5.63 7.83 11.81 7.83.52 0 1.05-.04 1.58-.11 4.12-.57 7.15-3.19 8.59-4.7 2.2-2.31 3.46-4.87 3.23-6.54-.52-3.71-7.13-4.77-13.39-3.9z" style="fill:#fff"/></svg>