<svg xmlns="http://www.w3.org/2000/svg" viewBox="0 0 2565.9 2555.4"><path style="fill:#fff" d="m2565.2 1223.9-.3-12v-.1c-.9-33.4-2.7-67.6-4.2-97.8-.4-8.1-.8-16.4-1.2-24.5-1.1-24.7-2.3-50.2-4.9-75.8l-.5-4.1c-5.8-43.9-11.8-89.4-22-133.5-8-38.3-21.3-74.4-34-109.3l-3.1-7.9c-15.2-38.6-31-78.4-50.8-116.3l-.1-.1c-25.3-48.1-56.5-92.3-86.6-135.1-10.2-14.5-20.7-29.4-30.8-44.2l-.3-.4c-13.3-18.8-28.1-35.8-42.4-52.1-15.4-17.6-30-34.3-42.3-52.6-17-26-41.3-47.1-62.8-64.3-36.3-29-74.2-55-106.6-76.5-22.6-15.5-52.6-35.6-85-53.7-17.7-9.9-36.1-18.1-53.9-26.1-6.2-2.8-12.7-5.7-18.9-8.6-5.3-2.5-10.5-5-16-7.8-22.7-11.2-46.2-22.7-74-28.2-4.3-1-8.8-2.5-13.9-4.2-1.5-.5-3-1-4.6-1.5-6.7-2.3-13.6-4.9-20.2-7.3-12.2-4.5-24.9-9.2-38.1-13.2-9.5-3-19.3-6.3-28.7-9.4-19.7-6.6-40-13.5-61.4-18.8-26.5-6.8-55.3-12.2-93.4-17.5-23.2-3.5-46.6-5.4-69.2-7.3-11.2-.9-22.8-1.9-33.9-3-22-2.5-44.7-5.2-66.8-6-21.7-1.1-43.8-1.5-65.2-1.9-10.6-.2-21.5-.4-32.1-.7-3.6-.2-7.2-.4-11.1-.7-13.1-.8-26.6-1.7-40.3-1-22.8.8-47.6 3.1-75.8 7-17.2 1.9-34.2 4.5-50.7 7.1-6.8 1.1-13.3 2.1-19.7 3-13.3 1.6-27.1 2.9-40.4 4.1-13.9 1.3-28.4 2.6-42.8 4.3h-.2c-18.6 2.4-37.5 5.6-55.8 8.7-8.1 1.4-16.4 2.8-24.5 4.1l-.6.1c-5.9 1.1-11.5 2.6-16.4 3.9-4.1 1.1-8 2.2-11.4 2.8l-.8.2c-6.3 1.3-12.7 2.4-19.6 3.5-14.5 2.4-29.4 4.8-44.9 9.9-34.4 10.4-71.2 23.1-109.6 37.7l-.7.3c-39.1 16.1-70.6 30.7-99.1 46.1l-.2.1c-28.2 15.5-54.9 33.5-80.7 50.8-4.8 3.2-9.5 6.4-14.3 9.6l-.2.1c-34.5 23.3-62.1 43.3-87 62.9-28.7 22.4-55 47.1-79.1 70.4l-.4.4c-10.2 10.2-18.7 21.1-27 31.7-4 5.2-7.9 10.1-11.8 14.8-5 5.8-10.1 11.6-15.1 17.4-15.8 18.2-32.2 37-47.9 56.7-12.9 16.1-24.9 32.8-36.5 48.9-4 5.6-8.2 11.4-12.3 17-32.3 43.7-58.7 89.6-78.1 124.8-9.4 17.1-18 34.2-26.3 50.8l-.4.9c-4.1 8.3-8.5 16.7-12.7 24.8-8.6 16.7-17.5 33.9-25.7 51.9-8.8 18.5-16.2 39.1-22 61.2-11.9 41.4-23.5 83.4-34.6 125-11.1 41.7-13.5 84.6-14.3 121-.9 35 2.5 69.2 5.9 102.2l.1 1.3c0 .5-.1 1.5-.2 2.2-.4 4.5-1 11.2.7 18.9.3 1.5.8 3 1.3 4.5L0 1211.9l19.2 28.8c.6 2.7 1.4 5 2 6.8-.8 6.5.5 13.2 3.9 19.5.1 1.6.4 3.4.7 5.2.6 4.2 1.6 8 2.3 11.1.6 2.5 1.4 5.6 1.4 6.9 0 7.9 2.3 14.7 4.6 19.9-3.7 9.1-2.9 17.1-1.9 21.9.9 4 3 9.8 7.8 15.5v.2l-2.6 15.2 2 2c.2 5.3 1.7 9.7 3.3 13 3.9 7.9 6.2 18 7 31.6.2 7.6 2.5 13.7 4.3 18.1l-25.2 75.3 41.2-24.7c7.4 45.4 17.4 90.2 29.9 134.4l19.1 187c-1.1 2.5-2.1 5.2-2.8 8.3l-12.7 12.7 5.8 17.6c1.3 3.8 2.9 6.8 4 8.6l10.3 31 17.2-8.6 34.6 33.2v-32.6l2.7-.3c.9-.1 2.4-.2 4.1-.4.1 0 10.7-.9 22-1.1 13.3 24.3 27.4 48.2 42.4 71.6l-27.4-3.9 10.6 16.7-63.9-31.8 116.4 122.8c3.9 4.1 7.8 8.9 11.8 14 5.8 7.3 12 15 19.5 22.2l4.6 16.3c2.8 9.7 7.1 18.3 13 25.7 1.8 2.2 3.5 4.4 5.2 6.6 8.6 10.9 17.4 22.1 28.7 32.6.3.3.5.5.8.7l-8.2 24.5h8.2v39.1l31.2-31.2c1.1.6 2.2 1.1 3.4 1.6 4.9 5.5 10.2 8.7 14.6 10.5 6.6 2.7 13 3.3 18.6 2.8.4.3.9.6 1.3.9v13.5h27c6.3 8.1 13.4 16.1 22.9 23.6 7.3 6.2 14.5 12.8 21.5 19.2 7.7 7 15.6 14.3 23.8 21.1l.1.1c33.8 28 71.1 50.1 99.8 66.3 15.9 9 32 18.4 47.5 27.6 23.8 14 48.4 28.5 73.8 42l.1.1c48.2 25.3 102.2 44.7 165 59.2l.6.1c18 3.7 37.5 7.9 58.3 13.1 6.6 1.9 13.5 4.3 20.7 6.8 10.7 3.7 21.7 7.5 33.3 10.3l.6.1c23.6 5.1 47.7 9.6 71 14 1.9.4 3.9.7 5.8 1.1v5.8h30c3 0 5.8-.2 8.3-.6 7 3.6 16.4 5.4 28.4 1.8.1 0 .1 0 .2-.1l.9-.2 1.7-.5c1.8-.5 6.9-.5 10.6-.5 7.6.3 15.3 1.1 23.4 1.9l-2 1.5 49.9 9.7 2.8 5.6 7.3-3.7 6.3 1.2c18.1 3.5 35.2 5.3 51.2 5.3 15.2 0 29.4-1.6 42.6-4.7 36.4 3 72.7-.6 108-10.8 3.9 1.7 8.6 2.7 14.1 2.4 5.2-.2 14-2 22.1-9.9l2.4-.6c1.4-.4 3.4-.9 4.8-1.2l-9.3 11.1 89.2-22.3c14.3-3.6 28-7 41.4-10.2l.1 1.1 12.8-4.3c10.6-2.6 20.8-5.1 31-7.7l22.7-5.7v-17c3.9-2.6 7.9-6.1 11.2-10.9l32.3-1.9c13.5-.8 25-6.9 32.2-17 1.1-1.6 2.1-3.2 3-4.8 4.8-1.4 9.3-2.9 13.6-4.3 1.3-.4 2.6-.9 4-1.4 8.8-2.6 17.8-5.4 27.4-9.2l.9-.4c9.5-4.2 18.3-8.9 26.9-13.5 2.8-1.5 5.5-2.9 8.2-4.3.9 0 1.8.1 2.7.1 12.3 0 20.6-6.2 24.9-10 16.4-1.5 29.9-10 37.9-23.8 2-1.6 3.9-3 5.4-4 9.2-5 18.2-10.1 27-15 6.7-3.8 13.6-7.6 20.6-11.4 4.6-.1 10.7-.8 16.8-3.7 12.2-5.6 23-12 33.6-18.1l21-12.3 27.2-9.1-4.3-4.3 13.3-7.8-16.4-5.5c3.1-2.3 6.1-4.5 9.2-6.7 6.8-5 13.7-10 20.4-15.3h21.2l6.9-20.4c.5-1.6.9-3.1 1.2-4.5.4-.5.7-.9 1-1.1l.6-.5.7-.7c6.7-6.1 13.7-11.9 21.1-18 12-9.9 24.4-20.2 35.9-32.2 27-27 50.4-52.3 71.5-77.5 20.5-24 41.7-48.7 59.7-76.5 22.1-34 41.6-69.1 60.5-103.2l5.5-9.9c7.8-13.8 15.2-27.8 22.3-41.2 5.5-10.4 11.2-21.1 17-31.6 7.2-.7 14.4-1.4 21.5-2.1 11.6-1.1 23.7-2.2 35.4-3.6l1.5-.2c8.8-1.5 16.2-5.2 22.1-8.3.8-.4 1.6-.8 2.3-1.2l29.1-14.5-16.7-27.8c-.4-.7-1.2-2.4-1.8-3.7-1.3-2.8-2.8-6.2-4.9-9.7l-.7-1.2c-3-4.4-6.1-8-8.7-10.8-1.1-1.2-2.7-2.9-3.1-3.6l-.7-1.1-.8-1c-1.4-1.7-3.2-5.4-5.1-9.1l-.5-1-.6-1c-1.6-2.7-3.2-5-4.5-7.1-1-1.5-1.9-2.9-2.8-4.3-3.8-6.9-7.4-13.6-10.5-20.3 6.5-15.8 11.3-31.5 15.9-46.9 4.8-15.9 9.4-31 15.5-45.1l.1-.3c12.7-30 18.1-61.5 23.3-91.9 1.3-7.7 2.6-15 3.9-22.3l.1-.5c4.6-26.7 7.7-53.5 10.7-79.4 1-8.5 2-17.2 3-25.8l.1-.5c.6-6.3 1.4-12.6 2.1-18.8 2-17.6 4.1-35.7 4.8-54.5 5.1-35.6 4.2-69.3 3.4-101.9zm-650.3 1131.5c.8 0 .8-.8 1.7-.8 5.9.8 12.7 1.7 19.4 1.7-11 7.6-17.8 6.7-21.1-.9zm59.9-19.4c-.8-.8-.8-1.7-1.7-2.5 9.3-5.9 19.4-11.8 28.7-17.7.8 1.7 2.5 3.4 3.4 5.1-9.3 6.7-18.6 12.6-30.4 15.1zm557.6-1012c-.8 24.5-4.2 48.1-6.8 72.6-4.2 34.6-7.6 69.2-13.5 103.8-6.8 36.3-11 74.3-25.3 108-14.4 32.9-20.3 68.4-35.4 101.3-.8 2.5.8 6.7 1.7 9.3 4.2 10.1 9.3 19.4 14.4 28.7 2.5 4.2 5.1 7.6 7.6 11.8 2.5 5.1 5.1 10.1 8.4 14.3 3.4 5.1 8.4 9.3 11.8 14.3 2.5 4.2 4.2 9.3 6.8 13.5-5.1 2.5-11 5.9-16 6.7-21.9 2.5-44.7 4.2-67.5 6.8-2.5 0-5.9 3.4-7.6 5.9-15.2 27-28.7 54-43.9 81-21.1 38-41.3 75.1-65 111.4-16.9 26.2-37.1 49.8-57.4 73.4-21.9 26.2-45.6 51.5-70 75.9-16.9 17.7-37.1 32.1-55.7 49-4.2 3.4-7.6 8.4-11 12.7 0 1.7 0 4.2-.8 6.7-2.5 0-4.2-.8-8.4-1.7-21.1 18.6-48.9 34.6-70.9 56.5l1.7 1.7c-5.1 1.7-7.6 2.5-16 4.2v1.7c8.4.8 5.9 1.7 8.4 2.5-10.1 5.9-20.3 11.8-31.2 16.9-1.7.8-5.1.8-7.6.8-1.7 0-3.4-.8-4.2 0-18.6 10.1-36.3 20.3-54.9 30.4-4.2 2.5-8.4 5.9-12.7 9.3-.8 0-.8.8-1.7.8-3.4 11-11.8 15.2-23.6 13.5-2.5-.8-5.9 4.2-9.3 6.8-1.7 1.7-3.4 3.4-5.9 3.4-3.4 0-7.6-.8-10.1 0-13.5 6.8-26.2 14.3-39.7 20.3-8.4 3.4-16.9 5.9-25.3 8.5-7.6 2.5-14.3 5-21.9 6.7-2.5.8-5.9-.8-8.4-1.7-4.2 7.6-.8 20.3-15.2 21.1.8-.9.8-2.5.8-5.1-2.5-.8-5.9-.8-11-1.7 7.6-4.2 12.6-6.7 17.7-10.1 0-.8-.9-.8-.9-1.7-28.7 12.7-58.2 25.3-86.9 38v1.7c8.4-1.7 16.9-4.2 25.3-6.7-6.8 10.1-26.2 4.2-25.3 21.9 2.5-.8 5.1-.8 8.4-1.7v1.7c-27 6.7-54.9 13.5-85.2 21.1 4.2-5.1 7.6-12.7 10.1-12.7h-11.8c3.4 0 5.1-3.4 7.6-4.2 0-.8-.8-.8-.8-1.7-9.3 4.2-18.6 8.4-28.7 13.5 5.1 0 11.8.8 17.7 1.7.8.8.8 1.7.8 2.5-5.9 1.7-11 4.2-16 5.1-9.5 1.7-19.1 2.6-28.7 2.5-5.9 0-8.4 6.8-16 4.2-6.7-2.5-16 .8-23.6 2.5-3.4.8-7.6 1.7-9.3 4.2-5.1 8.4-7.6 2.5-11-1.7-36.3 12.7-74.3 17.7-113.1 14.3-.8-1.7-1.7-3.4-1.7-5.1h-3.4v5.1c-25.3 6.8-54 5.9-84.4 0 3.4-2.5 5.9-3.4 7.6-4.2s2.5-.8 4.2-2.5c-2.5-.9-5.1-1.7-9.3-2.5 3.4-.8 5.1-.8 6.7-1.7v-1.7c-3.4.8-7.6.8-11 1.7-1.7.8-2.5 1.7-4.2 2.5-4.2-8.4-11.8-4.2-16.9-4.2-23.6 1.7-46.4-3.4-70-4.2-6.7 0-13.5 0-19.4 1.7-5.1.8-8.4 4.2-12.7-2.5-1.7-2.5-11 .8-18.6.8v-1.7c-6.7-.8-12.6-1.7-18.6-2.5-27-5.1-54.9-10.1-81.9-16-17.7-4.2-35.4-11.8-53.2-16.9-20.3-5.1-39.7-9.3-59.9-13.5-54.9-12.7-108-30.4-157.8-56.6-41.4-21.9-80.2-46.4-120.7-69.2-32.9-18.6-65.8-38.8-95.4-63.3-15.2-12.7-29.5-27-45.6-40.5-11.8-9.3-19.4-20.2-27.9-32.1-1.7-1.7-4.2-3.4-8.4-6.8 0 4.2.8 6.8.8 8.4h-3.4c0-3.4-.8-7.6-.8-11.8-7.6 6.7-13.5 5.9-17.7-3.4-.8-1.7-5-2.5-6.7-1.7-9.3 4.2-16 4.2-20.3-6.7-.8-.8-1.7-1.7-2.5-1.7-10.1 1.7-7.6-5.9-9.3-11-2.5 0-5.1-.8-8.4-.8.8-2.5 1.7-4.2 3.4-7.6-3.4 1.7-5 2.5-6.7 4.2 0-7.6-5.9-9.3-10.1-13.5-11.8-11-21.1-23.6-31.2-36.3-3.4-4.2-5.9-9.3-7.6-15.2 7.6 9.3 15.2 17.7 21.9 26.2 4.2.8 7.6 1.7 11.8 2.5-5.1-18.6-27-27.9-31.2-47.3-19.4-10.1-30.4-30.4-45.6-46.4 1.7.8 4.2 2.5 8.4 5.1-11-18.6-21.1-34.6-32.9-53.2 5.9.8 8.4.8 11.8.8.8 5.9 2.5 12.6 4.2 18.6 16.9-1.7 25.3 6.8 32.9 20.3 4.2 7.6 12.7 14.4 21.9 16 1.3-.6 2.4-1.5 3.4-2.5-5.1-7.6-9.3-15.2-14.3-22.8l-60.8-96.2c.8 0 1.7-.8 2.5-1.7 5.1 5.9 11 11.8 16 17.7.8-.8 2.5-1.7 3.4-2.5-4.2-8.4-8.4-16-12.7-24.5l.8-.8c2.5 2.5 5.9 4.2 7.6 6.7 21.9 29.5 43 59.9 66.7 87.8 10.1 11.8 20.3 26.2 37.1 32.9 9.3 3.4 15.2 12.7 22.8 19.4 7.6 6.7 14.4 14.3 24.5 18.6 4.2 1.7 7.6 7.6 11 12.7 7.6-3.4 10.1 2.5 10.1 8.4 0 9.3 5.9 14.3 11.8 18.6 11.8 7.6 23.6 15.2 36.3 21.9 16 8.4 30.4 18.6 42.2 32.9 6.7 9.3 17.7 14.4 27 21.9 21.9 17.7 48.1 27.9 70.9 43.9 3.4 1.7 8.4 6.8 13.5.8 0-.8 5.1 1.7 7.6 3.4l22.8 15.2c2.5 1.7 5.1 5.1 8.4 5.9 22.8 12.6 45.6 26.2 68.4 39.6l1.7-1.7c-2.5-2.5-4.2-5.1-6.7-8.4 7.6 2.5 14.3 5.9 21.1 6.8 21.1 2.5 36.3 18.6 54.9 26.2 7.6 2.5 13.5 11 21.1 13.5 14.3 4.2 24.5 18.6 41.4 17.7 2.5 0 5.1 6.8 7.6 10.1 3.4 0 5.9 1.7 9.3.8 12.7-1.7 23.6 4.2 35.4 8.4 13.5 5.1 27.8 5.9 42.2 8.4 3.4 0 5.9-1.7 7.6-2.5 5.9 3.4 11 5.9 16.9 7.6 15.2 3.4 29.5 6.7 44.7 10.1 11 2.5 21.1 7.6 31.2 6.7 10.1-.8 18.6 2.5 27.8 5.1 4.2.8 8.4-.8 11.8 0 4.2 0 8.4 3.4 12.7 2.5 6.7-1.7 12.7 3.4 19.4 0 3.4-1.7 9.3 0 13.5.8 17.7 3.4 35.4 7.6 53.2 10.1 11 1.7 22.8-.8 33.8-.8 15.2 0 31.2 1.7 46.4.8 21.9-2.5 43-6.7 65-9.3 37.1-5.1 74.3-8.4 111.4-13.5 14.3-1.7 28.7-5.1 43-7.6 7.6-.8 15.2.8 21.9-.8 20.3-4.2 40.5-9.3 59.9-16 21.1-7.6 41.4-17.7 62.5-27 2.5-.8 4.2-1.7 6.8-2.5 28.7-11 58.2-21.1 86.1-32.9 11-5.1 20.3-14.3 30.4-21.1 16-9.3 31.2-17.7 47.3-27 16-9.3 32.9-16.9 48.1-27 27.9-18.6 55.7-38 83.5-57.4 22.8-16 44.7-32.1 65.8-49.8 16-13.5 29.5-29.5 44.7-43.9 7.6-7.6 15.2-15.2 23.6-21.1 22.8-15.2 35.4-38 53.2-57.4 4.2-5.1 5.9-11.8 9.3-16.9 3.4-5.1 6.8-8.4 10.1-11.8-.8-1.7-.8-2.5-.8-4.2 5.1-4.2 9.3-7.6 12.7-10.1-.8 0-3.4-1.7-5.1-2.5 1.7-.8 3.4-1.7 5.9-3.4-1.7-1.7-3.4-2.5-5.9-3.4 2.5-.8 5-2.5 7.6-4.2-3.4-4.2-10.1-8.4 1.7-11 1.7-.8 2.5-5.1 3.4-6.8 4.2-1.7 8.4-4.2 12.7-5.9-2.5-.8-5.9-2.5-9.3-3.4-1.7-9.3 5.9-11 13.5-11.8-.8-2.5-2.5-4.2-3.4-5.9 4.2-2.5 8.4-4.2 11.8-5.9-4.2-11 3.4-14.3 8.4-19.4.8 1.7.8 3.4.8 5.1l2.5 2.5c0-2.5.8-4.2 1.7-5.9.8-3.4 1.7-5.9 2.5-8.4-2.5 0-4.2 0-6.7-.8 3.4-9.3 9.3-11 18.6-7.6-.8-.8-1.7-.8-2.5-1.7 5.9-5.1 11-12.6 16.9-12.6H2269c1.7-8.5 3.4-10.1 5.1-14.4 4.2 0 8.4-.8 12.7-.8 0-1.7.8-2.5.8-3.4-3.4-1.7-6.7-3.4-10.1-4.2 5.1-4.2 9.3-7.6 16-13.5-15.2-.8-27.9-2.5-39.7-2.5-31.2 0-63.3 1.7-94.5 2.5-19.4.8-38.8 0-58.2.8-30.4.8-60.8 4.2-91.1 5.9-17.7 1.7-53.2 2.5-53.2 2.5l-53.2 2.5c-32.1.8-63.3 2.5-94.5 3.4-35.4.8-71.7 0-107.2 1.7-38.8.8-76.8 4.2-114.8 6.7-30.4 1.7-61.6 2.5-92 4.2-20.3.8-41.3 3.4-61.6 5.1-16.9 1.7-33.8 3.4-50.6 4.2-31.2 1.7-63.3 4.2-94.5 5.1-27.8.8-54.9 1.7-82.7 1.7-36.3.8-73.4.8-110.6 1.7l-96.2 2.5c-31.2.8-63.3 2.5-94.5 3.4-54.9 1.7-109.7 2.5-164.6 4.2h-61.6c-8.4 0-16.9.9-24.5.9-36.3-.9-72.6-2.5-108.9-2.5-26.2 0-51.5 2.5-77.6 2.5-31.2 0-62.5-1.7-93.7-3.4-21.9-.8-43-1.7-65-3.4-33.8-3.4-67.5-6.7-100.4-15.2-10.1-2.5-21.1.8-32.9 1.7 0-.8 0-4.2-.8-6.8-5 2-10.1 4-15.2 5.9 2.5-4.2 3.4-9.3 5.1-9.3h-11.8c-3.4 0-7.6 4.2-11 5.9-.8-2.5-2.5-4.2-3.4-6.8 0 0 .8-.8 1.7-.8 2.2 1.1 4.2 2.5 5.9 4.2v-8.4c-1.7-12.7 1.7-16 14.4-18.6 8.4-1.7 16-6.7 24.5-8.4 5.1-.8 11 0 13.5 0 8.4-2.5 14.4-5.1 21.1-5.9 15.2-1.7 30.4-2.5 45.6-3.4 22.8-.8 45.6-.8 68.4-1.7 31.2-.8 61.6-3.4 92.8-3.4 20.3 0 41.3 2.5 61.6 2.5 15.2 0 31.2-1.7 46.4-1.7 31.2 0 61.6-.8 92.8-.8 26.2-.8 52.3-.8 78.5-.8 11 0 14.3-1.7 24.5-2.5 9.3-47.3 5.1-92.8 6.7-143.5h12.7v106.3c0 .8 2.5.8 3.4.8 2.5-2.5 4.2-5 5.9-7.6H755v-17.7c0-2.5.8-4.2.8-5.9 0-2.5-.8-5.1-.8-7.6 0-18.6.8-38 .8-57.4.8-7.6 1.7-14.4 1.7-21.9 0-3.4-1.7-5.9-2.5-9.3 0-.8 2.5-1.7 5.9-3.4-6.8-6.8.8-19.4-13.5-21.1 0 .8 0 3.4-.8 6.7-.8-1.7-1.7-2.5-1.7-3.4l-2.5-12.7c-.8-2.5 0-5 .8-7.6.8-1.7 2.5-4.2 1.7-5.9-2.5-8.4 1.7-16 .8-23.6 0-3.4-2.5-5.9-2.5-6.8v-32.1c0-10.1-1.7-22.8 1.7-31.2 4.2-11 5.1-22.8 7.6-34.6.8-4.2 1.7-8.4 1.7-12.7.8-21.9 1.7-43 1.7-65 .8-14.3 0-27.9-.8-41.3-5.9 32.9.8 65.8-10.1 97.9h-2.5c-.8-17.7-2.5-34.6-3.4-53.2-5.1-.8-5.1-.8-1.7-6.7.8-.8 0-2.5 0-4.2-.8-5.1-4.2-12.7-2.5-14.4 8.4-8.4-.8-19.4 3.4-27.8 1.7-2.5 2.5-6.8 3.4-6.8 9.3.8 5.9-6.7 6.7-11 6.7-48.1 5.1-96.2 5.9-144.3v-12.7c-4.2 8.4-1.7 16.9-3.4 23.6-3.4 16-3.4 32.1-1.7 49 1.7 15.2-1.7 31.2-2.5 46.4v8.4c0 5.9.8 11 0 16 0 5.9-1.7 11.8-2.5 17.7 0 1.7-1.7 2.5-5.1 3.4 7.6-48.1-1.7-96.2-1.7-145.2 2.5 1.7 3.4 2.5 4.2 3.4-1.7-5.9-5.1-12.7-4.2-19.4 2.5-31.2 5.9-61.6 8.4-92.8 0-8.4-2.5-17.7-2.5-26.2 0-3.4 2.5-5.9 2.5-9.3.8-12.7 0-25.3.8-38 2.5-32.1 4.2-63.3 6.7-94.5.8-17.7 2.5-36.3 4.2-54-.8-.8-2.5-.8-4.2-1.7-15.2 17.7-32.1 36.3-46.4 54.9-33.8 43.9-65.8 88.6-101.3 131.7-22.8 27.9-48.9 53.2-74.3 79.3-2.5 2.5-5.1 5.1-8.4 6.8-8.4 3.4-13.5 10.1-16.9 18.6-.8 2.5-3.4 5.1-5.9 8.4-.8-2.5-3.4 1.7-5.1-.8-2.5 3.4-3.4 1.7-5.9 5.1-.8-.8-6.7-3.4-7.6-4.2 5.9-5.1 14.3-10.1 17.7-16.9 4.2-7.6 9.3-15.2 11.8-23.6-.8 0-1.7-.8-2.5-.8-2.5 3.4-5.1 5.9-7.6 9.3-.8 0-.8-.8-1.7-.8 2.5-4.2 5.1-9.3 7.6-13.5 5.9-5.1 0-6.7-3.4-9.3l10.1-20.3c4.2-6.7 8.4-12.7 12.7-19.4 6.7 12.7-7.6 17.7-11 26.2 1.7 0 2.5.8 4.2 1.7 5.1-6.7 11-12.7 15.2-19.4 7.6-11.8 14.3-24.5 21.1-37.1 2.5-5 2.5-11 4.2-16.9 0-1.7 3.4-3.4 5.1-5.1 2.5-1.7 5.1-2.5 6.7-5.1 25-35 49.8-70.1 74.3-105.5 31.2-46.4 62.5-92 93.7-138.4 21.1-31.2 40.5-63.3 62.5-93.7 24.5-34.6 51.5-67.5 76.8-102.1 27.9-36.3 54-73.4 81.9-109.7 21.1-26.2 43-51.5 63.3-78.5 20.3-27.9 38-56.5 57.4-84.4 12.7-18.6 27-36.3 40.5-54 7.6-11 16-22.8 23.6-33.8 9.3-13.5 19.4-27 28.7-40.5 1.2-2.4 2.6-4.7 4.2-6.7-21.9 2.5-42.2 4.2-62.5 5.9-22.8 2.5-44.7 5.1-67.5 5.9-35.4.8-69.2 5.9-103 16.9-29.5 9.3-60.8 14.3-89.5 25.3-44.7 16.9-89.5 34.6-132.5 57.4-53.2 27.9-103 59.9-150.2 96.2-36.3 27.9-68.4 59.1-102.1 89.5-32.7 29.4-62.3 61.4-89.3 96-19.4 24.5-36.3 51.5-53.2 77.6-17.7 27-34.6 53.2-50.6 81-25.3 44.7-51.5 88.6-74.3 134.2-16 31.2-27.8 64.2-40.5 97.1-8.4 21.1-16 41.4-22.8 62.5-9.3 29.5-17.7 59.1-24.5 88.6-4.2 17.7-2.5 36.3-4.2 54.9-.8 14.3-2.5 28.7-4.2 43-.8 7.6-3.4 16-3.4 23.6 0 16-11 26.2-17.7 38.8-1.7 3.4-7.6 4.2-9.3 7.6-3.4 6.7-9.3 13.5-.8 21.1.8.8 0 1.7 0 3.4-4.2 0-8.4-.8-15.2-1.7l6.8 10.1c-1.7 1.7-5.1 2.5-5.9 3.4.7 6.8 1.6 13.5 2.5 20.3 0 2.5 1.7 5.1 2.5 8.4l-2.5.8c1.7 6.7 2.5 13.5 4.2 20.3 4.2 5.9 6.8 12.6 15.2 21.1v-23.6s6.7-.8 12.6 1.7c-2.5-5.9-5.9-11-9.3-18.6 4.2 1.7 5.1 2.5 7.6 3.4 0-3.4.8-5.9 1.7-11.8 4.2 20.3 7.6 38.8 11 56.5 0-.8.8-.8 1.7-.8-1.7-20.3-4.2-40.5-6.7-60.8.8-.8 5.1-11.8 5.9-12.7 1.7 1.7 4.2 3.4 4.2 5.1 2.5 23.6 1.7 59.1 5.9 82.7 2.5 15.2 11 29.5 10.1 43.9 0 11.8 10.1 21.1 3.4 32.9-.8-1.7-1.7-4.2-2.5-6.7-5.9 1.7-11 4.2-16 5.9 11.8-.8 16 5.9 16 13.5-5.1 5.1-8.4 9.3-11.8 13.5 4.2 1.7 8.4 3.4 11.8 5.1 0-2.5 1.7-5.1 0-11.8 5.1 5.1 9.3 12.7 14.4 17.7-.8 1.7-1.7 5.1-2.5 7.6-6.7 0-16.9-4.2-23.6-4.2 0-2.5-1.7-6.7-2.5-10.1-.8 0-2.5.8-2.5.8v5.1c2.5 15.2 4.2 31.2 6.7 46.4-.8 0-1.7.8-2.5.8-5.9-14.3-7.6-28.7-11-43.9 1.7-.8 1.7-4.2 2.5-5.9-2.5-1.7-4.2-3.4-5.1-5.1-3.4-9.3-5.9-19.4-8.4-30.4-4.2 1.7-7.6 2.5-11.8 5.1l5.1-15.2c-1.7-.8-4.2-.8-5.1-.8-1.7-4.2-3.4-7.6-3.4-11-.8-15.2-3.4-30.4-10.1-43.9-.9-1.7 1.7-4.2 1.7-6.8.8-1.7 0-3.4-1.7-5.1.8-5.1 2.5-10.1 2.5-15.2 0-1.7-2.5-5.1-4.2-5.9-7.6-3.4-8.4-8.4-3.4-14.4 1.7-1.7 2.5-5.9 1.7-8.4-1.7-5.9-6.7-12.7-6.7-18.6 0-8.4-3.4-16-4.2-23.6-.8-2.5 0-5.9 0-8.4-1.7-2.5-5.1-5.9-4.2-7.6 3.4-8.4-5.1-14.3-2.5-21.9h4.2c0-.8-.8-1.7-.8-1.7-5.1-1.7-7.6-6.7-5.1-11.8.8-.8 1.7-4.2.8-4.2-10.1-6.7-5.1-16.9-5.9-25.3-3.4-33.8-6.8-66.7-5.9-100.4.8-38 3.4-76.8 13.5-113.9 11.1-41.7 22.7-83.4 34.6-124.9 5.1-19.4 11.8-38.8 20.3-56.5 11.8-26.2 25.3-50.6 38-76 8.4-16.9 16.9-33.8 26.2-50.6 22.8-41.3 47.2-82.7 76-121.5 16-21.9 31.2-43.9 48.1-65 20.3-25.3 41.4-48.9 62.5-73.4 12.7-15.2 23.6-31.2 37.1-44.7 24.5-23.6 49.8-47.3 76.8-68.4 27.9-21.9 56.5-42.2 85.2-61.6 30.4-20.3 60.8-41.4 92.8-59.1 31.2-16.9 63.3-31.2 96.2-44.7 35.4-13.5 71.7-26.2 108-37.1 20.3-6.7 41.4-8.4 61.6-12.7 9.3-1.7 18.6-5.1 27.9-6.7 26.2-4.2 53.2-9.3 79.3-12.7 27.9-3.4 55.7-5.1 83.5-8.4 22.8-3.4 46.4-7.6 70-10.1 24.5-3.4 49-5.9 73.4-6.8 16-.8 32.9.8 48.9 1.7 32.1.8 65 .8 97.1 2.5 21.1.8 43 3.4 65 5.9 33.8 3.4 68.4 5.1 102.1 10.1 30.4 4.2 60.8 9.3 90.3 16.9 30.4 7.6 59.1 18.6 88.6 27.9 19.4 5.9 38 13.5 57.4 20.3 7.6 2.5 14.3 5 21.9 6.7 30.4 5.9 56.5 21.1 83.5 33.8 23.6 11 48.1 21.1 70.9 33.8 28.7 16 55.7 33.8 82.7 52.3 35.4 23.6 70.9 48.1 104.6 75.1 21.1 16.9 42.2 35.4 56.5 57.4 25.3 38 59.1 68.3 85.2 105.5 39.7 58.2 82.7 113.9 115.6 176.4 20.3 38.8 36.3 80.2 52.3 120.7 12.7 34.6 25.3 69.2 32.9 105.5 10.1 43.9 16 89.5 21.9 134.2 3.4 32.9 4.2 65.8 5.9 98.7 1.7 32.1 3.4 65 4.2 97.1 1.1 36 2.7 72.3-2.3 111.1zM162.8 1546.9c.8-.8 6.7-3.4 7.6-3.4 9.3 13.5 13.5 29.5 20.3 43.9 0 0-6.7 3.4-7.6 3.4-6.8-14.3-13.5-29.5-20.3-43.9zm223.7-319.8c-3.4 5.1-5.9 10.1-9.3 15.2l-.8-.8c-7.6 6.7-17.7 17.7-23.6 23.6 0-2.5.8-5.1 1.7-7.6 5.1-5.1 11-9.3 16-14.3 1.6-.6 3-1.4 4.2-2.5l-.8-.8c1.7-4.2 2.5-8.4 3.4-10.1 4.2-3.4 8.4-4.2 9.3-6.7 3.4-9.3 5.9-12.7 12.7-11.8 0-1.7 0-2.5-1.7-4.2 5.1-3.4 10.1-7.6 15.2-11 .8.8 1.7.8 2.5 1.7-3.4 5.1-3.4 9.3-6.7 15.2 0 0-2.5.8-4.2.8-1.7 2.5-3.4 5.1-4.2 7.6 0 .8.8 3.4 4.2 5.9-6.7 3.4-12.7 5.9-11.8 15.2 0 2.5-4.2 5.9-8.4 8.4-7.6 9.3-18.6 23.6-26.2 32.1 2.5.8 6.7.8 6.7 1.7 0 2.5 0 5.9-1.7 7.6-8.4 6.8-16.9 12.7-24.5 19.4-1.7.8-2.5 4.2-3.4 5.9-3.4 6.7-4.2 16-16 14.3.8-8.4-1.7-12.7-11.8-10.1 6.8-11 12.7-19.4 18.6-28.7 9.3-7.6 17.7-14.3 26.2-21.9l15.2-10.1c3.4-2.5 5.9-5.9 9.3-8.4 0 .8 2.5-.8 4.2-1.7 2.5-6.8 5.1-14.4 7.6-21.1-1.1-1.1-1.1-2-1.9-2.8zm-14.4-15.2c5.1-7.6 17.7-21.1 22.8-28.7.8.8 1.7 1.7 3.4 2.5-5.1 7.6-10.1 16-15.2 23.6-.8-.8-10.1 3.4-11 2.6zm50.7-34.6c9.3-11.8 18.6-23.6 28.7-35.4.8.8 7.6 2.5 8.4 3.4-9.3 11.8-21.9 27.9-31.2 40.5-1.7-1.8-4.2-7.7-5.9-8.5z"/><path style="fill:#fff" d="m928.9 1616 20.3 30.4c1.7 1.7 4.2 2.5 5.9 3.4l.8-.8c-10-13.4-19.6-27.2-28.7-41.4-.8 3.3 0 5.9 1.7 8.4zM1758.5 959.4c-.8-18.6-.8-38-.8-56.5 0-2.5-1.7-5.1-2.5-6.7-8.4-12.7-16-25.3-23.6-38-4.2-6.7-8.4-9.3-16-9.3-31.2 1.7-61.6 1.7-92.8 2.5l-144.3 2.5h-20.3c10.1 5.9 19.4 11 29.5 15.2 37.1 15.2 71.7 32.9 105.5 54 22.8 14.3 40.5 34.6 58.2 54 5.1 5.1 11 10.1 15.2 16 16.9 24.5 32.1 48.9 49 72.6 15.2 21.9 24.5 46.4 32.9 70.9 4.2 11.8 7.6 24.5 11 36.3 1.7 0 2.5-.8 3.4-.8v-7.6c0-29.5-.8-59.1-1.7-87.8-.8-20.3.8-40.5.8-59.9-1-19.4-2.7-38-3.5-57.4z"/><path style="fill:#fff" d="M1551.7 1602.5c8.4-11 15.2-23.6 23.6-35.4 8.4-13.5 20.3-25.3 27-39.7 12.7-25.3 22.8-52.3 32.9-78.5 4.2-11.8 7.6-24.5 11.8-36.3-.8-.8-.8-.8-1.7-.8l-7.6 15.2c-.8 0-5.9-2.5-6.7-3.4 4.2-8.4 9.3-16 12.7-23.6 10.1-23.6 20.3-46.4 18.6-72.6-.8-8.4.8-16.9 2.5-25.3 3.4-21.1 6.7-43 11-64.1 2.5-11.8-3.4-21.9-5.9-32.1l-12.7-55.7c-8.4-32.1-29.6-55.7-48.1-81.9-15.2-21.9-33.8-41.3-57.4-55.7-24.5-14.4-47.3-32.1-71.7-48.1-13.3-9.2-27.1-17.7-41.4-25.3-11.8-5.9-25.3-11.8-38-16-10.1-3.4-20.3-5.9-31.2-6.7-25.3-1.7-50.6-1.7-76-2.5-6.3 0-12.5.9-18.6 2.5-13.5 3.4-27 7.6-40.5 11.8-2.5.8-4.2.8-6.8.8-5.9 0-12.7-1.7-17.7.8-29.5 12.7-59.1 26.2-88.6 39.7-12.7 5.9-24.5 13.5-36.3 21.1-.8.8-.8 2.5-2.5 5.1 7.6-3.4 15.2-7.6 20.3-10.1 0 0 4.2 3.4 4.2 4.2-7.6 5.1-19.4 11.8-27 17.7l-4.2-4.2c1.7-3.4 2.5-6.7 5.1-11.8-6.7 3.4-10.1 6.7-13.5 8.4 1.7 2.5 4.2 6.8 3.4 8.4-.8 2.5-5.9 2.5-8.4 4.2-2.5 1.7-5 3.4-6.7 5.1-9.3 14.3-23.6 23.6-38.8 32.1-5.1 2.5-11.8 5.9-15.2 10.1-5.9 7.6-9.3 16.9-15.2 24.5-8.4 10.1-18.6 19.4-27.9 29.6-2.5 3.4-5.9 6.7-9.3 9.3 8.4 5.9 4.2 26.2-10.1 34.6.8-8.4 12.6-14.4 5.9-26.2-3.4 4.2-4.2 6.7-6.8 8.4-7.6 5.9-5.9 18.6-17.7 21.1-.8 0-.8 2.5-.8 4.2 0 1.7 1.7 4.2.8 5.1-5.1 5.1-.8 16-11 17.7-.8 0 0 6.7 0 10.1 0 0-.8.8-1.7 2.5-1.7-1.7-2.5-2.5-4.2-5.1-.8 6.7-1.7 14.4-2.5 21.1-.8 2.5-.8 6.7-2.5 7.6-12.7 5.1-11.8 16-15.2 25.3 4.2 3.4 7.6 5.1 11 7.6-1.7 3.4-2.5 5.9-4.2 8.4-3.4 5.1-6.7 10.1-6.7 17.7 0 10.1-1.7 21.1-5.9 31.2-1.7 5.1-9.3 8.4-14.3 11.8-1.7.8-5.9-3.4-8.4-5.9-1.7-.9-.8-3.4-1.7-5.1h-2.5c-1.7 4.2-3.4 7.6-3.4 11.8-.8 29.5-.8 58.2-.8 87.8.8 21.9 2.5 44.7 1.7 66.7-.9 40.5-.9 80.2 4.2 120.7 5 38 5 76.8 7.6 115.6.8 6.8-.8 12.7-.8 19.4 0 16 .8 31.2.8 47.3 97.1-1.7 190.7-3.4 278.5-5.1-22.1-11-44.3-21.7-66.7-32.1 0 0 .8.8 1.7 3.4-14.4-3.4-26.2-8.4-36.3-17.7-7.6-5.9-16-11-24.5-16-9.3-5.9-19.4-11-29.5-16 .8-1.7.8-2.5 1.7-3.4 8 3.9 16.2 7.6 24.5 11-8.4-18.6-29.5-25.3-32.1-44.7-10.1 5.1-24.5-4.2-28.7-16.9-.8-.8-3.4-.8-4.2-2.5-6.7-10.1-13.5-21.1-21.1-31.2-7.6-10.1-16-20.3-23.6-30.4-4.2-5.9-6.7-12.7-10.1-19.4 0-2.5-2.5-4.2-3.4-5.9-2.5-5.1-4.2-9.3-5.9-14.4-6.7-14.4-13.5-28.7-19.4-43-.8-2.5.8-8.4 3.4-10.1 4.2-2.5 9.3-2.5 11 4.2 1.7 4.2 4.2 7.6 6.7 11 .8 0 1.7-.8 2.5-.8l-15.2-55.7c.8-.8.8-.8 1.7-.8l17.7 43s.8-.8 1.7-.8c0-3.4-.8-5.9-.8-8.4 8.4 10.1 14.3 21.1 21.1 31.2 3.4 5.1 7.6 10.1 11.8 15.2 1.7 2.5 1.7 5.1 3.4 7.6 6.2 11.4 12.6 22.7 19.4 33.8 3.4 6.7 7.6 14.4 11 21.1 13.5 11.8 28.7 22.8 39.7 36.3 15.2 18.6 35.4 30.4 55.7 40.5 20.3 10.1 41.3 18.6 61.6 27.9 23.6 11 48.1 13.5 72.6 16 21.9 1.7 43 2.5 65 2.5 24.5 0 48.9.8 72.6-2.5 27.9-3.4 55.7-11 82.7-17.7 16.9-4.2 34.6-9.3 49.8-18.6 24.5-13.5 48.1-30.4 70.9-47.3 9.6-6.9 17.2-16.2 24.8-25.5z"/><path style="fill:#fff" d="M955.1 1604.2c8.4 13.5 14.3 16 18.6 11-8.9-5.5-15.3-14.3-17.7-24.5-2.5 5.1-5.1 11-7.6 16.9 1.6-.9 4.1-1.7 6.7-3.4zM889.2 1062.4c10.1-14.3 23.6-27 35.4-40.5 16.9-18.6 34.6-35.4 50.6-54.9 12.7-14.3 26.2-27.9 41.3-38.8 15.2-11 29.5-24.5 44.7-34.6 11.8-8.4 25.3-15.2 38.8-21.9-12.7-1.7-24.5-.8-37.1 0-30.4 1.7-61.6 2.5-92 4.2-38.8 1.7-76.8 4.2-116.5 5.9 3.4 81-1.7 160.3-5.9 240.5 13.7-21.1 26.4-41.4 40.7-59.9zM1749.2 1468.3c-1.7 2.5-3.4 5.9-5.1 9.3-21.9 41.3-39.7 85.2-66.7 124.1-23.6 33.8-49.8 64.1-85.2 86.1-5.1 3.4-9.3 7.6-13.5 11.8-28.7 26.2-59.9 48.9-97.9 65 97.9-3.4 194.9-6.7 290.3-10.1-12.6-95.5-23.6-190-21.9-286.2zM2379.6 1528.2c.8-1.7 0-4.2 0-5.9v5.9zM2331.5 1721.5c-1.7-1.7-3.4-4.2-5.9-7.6 1.7.8 2.5.8 3.4.8-5.1-4.2-12.7-9.3-17.7-16-9.3-11.8-18.6-23.6-27-35.4-16.9-22.8-33.8-46.4-50.6-70-14.3-19.4-29.5-38.8-43.9-58.2-16.9-21.9-33.8-43.9-49.8-66.7-17.9-25.5-35.4-51.4-52.3-77.6-22.8-34.6-44.7-69.2-67.5-103.8-18.6-28.7-37.1-59.1-57.4-86.9-23.6-32.1-49-62.5-68.4-97.9-5.9-11-15.2-21.1-23.6-32.1-1.7 68.4-3.4 135-5.1 201.7h1.7c.8-1.7.8-2.5 1.7-4.2h1.7c.8 12.7.8 25.3 1.7 38h.8v8.4c-12.7-5.1 0-16-8.4-24.5v59.1c0 2.5-3.4 14.3 3.4 22.8l-1.7 1.7c3.4 4.2 6.7 7.6 9.3 11 0 .8-.8 1.7-.8 2.5-3.4-.8-9.3-.8-9.3-1.7v55.7h3.4c2.5 7.6 6.7 14.4 8.4 20.3-4.2-1.7-8.4-3.4-14.3-5.1 2.5 15.2-4.2 28.7 6.7 38.8 2.5-1.7 5.1-2.5 5.1-2.5-1.1-1.5-2-3.1-2.7-4.9-.1 0-.3-.1-.5-.1l.3-.3-.6-1.5c12.7 5.1 8.4 15.2 10.1 23.6 1.7 7.6 1.7 15.2 1.7 22.8 0 .8-1.7.8-3.4 1.7 7.6 8.4 7.6 12.7-.8 20.3 2.5.8 5.1 2.5 8.4 4.2-2.5.8-5.1 1.7-5.9 2.5 2.5 6.7 4.2 11.8 6.8 16.9 0 2.5-1.7 7.6-.8 8.4 9.3 6.8-1.7 11.8 1.7 17.7h-2.5l-5.1-25.3c-.8.8-1.7.8-2.5.8.9 5.1 2.5 10.1 2.5 16 0 1.7-1.7 4.2-2.5 6.8 0 .8-1.7 2.5-3.4 3.4 1.7 1.7 3.4 2.5 3.4 2.5-1.7 2.5-3.4 5.1-5.1 8.4-3.4-2.5-5.9-4.2-9.3-6.8 0 11 .8 21.9 0 33.8-.8 25.3-3.4 50.6-3.4 76 0 11.8 3.4 22.8 5.1 34.6h2.5c1-2.2 1.8-4.4 2.5-6.7 1.7 2.5 3.4 4.2 4.2 5.9 2.5-3.4 4.2-5.9 5.1-7.6 4.2 3.4 6.7 7.6 9.3 7.6 34.6-.8 69.2-1.7 103.8-3.4 14.3-.8 29.5-4.2 43.9-4.2 43.9-.8 88.6-.8 132.5-.8 45.6 0 92 0 137.6-.8 7.6 0 18.6 6.7 23.6-6.7.8 3.4.8 5.9 1.7 7.6.8-1.7 2.5-3.4 3.4-5.1 4.9-7.8 4.1-12.9-5.2-17.9zM958.4 772.9c29.5-.8 58.2-2.5 87.8-4.2 24.5-1.7 49-5.1 73.4-5.1 68.3 0 137.5-.8 205.9-6.8 54-4.2 108.9-10.1 162.9-12.7 39.7-1.7 80.2 1.7 119.8 2.5h43c-22.8-34.6-46.4-68.4-70-103-32.1-47.3-62.5-94.5-94.5-141.8-21.1-32.1-43-63.3-65-94.5-19.4-27-38-54-57.4-81-16-21.9-32.9-42.2-49.8-63.3-22.8-28.7-45.6-58.2-68.3-86.9-3.4-4.2-6.8-5.9-11-.8-5.1 5.1-11 10.1-15.2 16-19.4 29.5-44.7 54.9-60.8 86.9-5 8.4-12.6 15.2-18.6 23.6-16 22.8-32.1 46.4-48.1 69.2l-15.2 22.8 2.5 2.5c2.5-2.5 5.9-5 8.4-7.6-2.5 5.9-5.9 11.8-9.3 20.3-3.4-6.8-5-10.1-6.7-12.7-8.4 12.7-16.9 23.6-25.3 34.6.9 0 1.7.8 2.5 1.7 4.2-4.2 7.6-8.4 11.8-12.7.8 0 1.7.8 2.5 1.7-10.1 13.5-21.1 26.2-31.2 39.7-.8 0-.8-.8-1.7-.8 1.7-3.4 3.4-7.6 5.1-11.8-11.8 11.8-22.8 25.3-32.9 38.8-5.1 6.7-10.1 14.3-15.2 21.9-.8.8-.8.8-1.7.8-2.5 1.7-5.1 4.2-7.6 5.9h2.5c.8 3.4 3.4 7.6 2.5 10.1-4.2 7.6-9.3 13.5-14.3 20.3-7.1 8.9-14.4 17.7-21.9 26.2-4.2 4.2-4.2 16.9-16 11 0 0-2.5 1.7-3.4 3.4-3.4 7.6-5.9 15.2-10.1 21.9-1.7 3.4-5.1 6.7-8.4 11l.8 1.7c-4.2 3.4-7.6 5.1-10.1 8.4-8.4 11-15.2 22.8-23.6 33.8-27 38-54.8 75.1-81.9 112.2 21.1 0 41.4.8 60.8 0 34.7-.6 68.4-1.5 103-3.2z"/><path style="fill:#fff" d="M2415.9 1099.5c0-29.5-.8-58.2-8.4-86.9-3.4 2.5-5.1 3.4-6.8 5.1-.8-1.7-2.5-4.2-2.5-5.9-.8-3.4 0-6.7 0-10.1 0-.8-.8-1.7-.8-3.4-1.7 2.5-2.5 4.2-4.2 5.9-.8-2.5-.8-5.9 0-6.7 5.1-5.1 2.5-8.4-.8-11.8-.8-1.7-1.7-4.2-2.5-5.9-5.1-17.7 0-37.1-5.1-54.9-4.2-13.5-3.4-27.9-6.7-41.4-4.2-20.2-9.2-40.2-15.2-59.9-8.4-26.2-16.9-51.5-25.3-77.6-5.9-17.7-11-36.3-19.4-52.3-11.8-22-27-41.4-40.5-61.6-5.9-8.4-11-17.7-17.7-25.3-21.1-25.3-43-50.6-64.1-76-23.6-28.7-46.4-57.4-70.9-85.2-21.1-23.6-43-46.4-65-69.2-15.2-16-27-33.8-47.3-44.7-64.1-35.4-129.1-69.2-197.5-97.1-30.4-12.7-60.8-26.2-92-36.3-53.2-17.7-108-32.9-163.7-42.2-26.2-4.2-51.5-9.3-76.8-12.7-30.4-4.2-60.8-5.9-91.1-8.4l-40.5-2.5c-10.1-.8-20.3-2.5-31.2-4.2 16 19.4 32.1 37.1 46.4 55.7 31.2 40.5 62.5 81 92.8 121.5 25.3 33.8 49 67.5 73.4 101.3 21.9 29.5 43.9 58.2 65.8 87.8 27 36.3 54 72.6 80.2 109.7 27.9 38.8 51.5 80.2 83.5 116.5 11 11.8 19.4 18.6 35.4 17.7 24.5-.8 49.8 0 74.3 0-.8.8-1.7 2.5-2.5 3.4 0 4.2-.8 7.6-.8 11.8v15.2c0 17.7-1.7 34.6-1.7 51.5.8 17.7 2.5 36.3 4.2 54.9 0 2.5.8 4.2 1.7 5.9 6.6 10 13.3 19.8 20.3 29.5 19.4 27.9 39.7 55.7 58.2 84.4 21.9 34.6 41.3 70 63.3 104.7 6.8 11 16 20.2 23.6 30.4 21.1 31.2 42.2 61.6 63.3 92.8 22.8 32.9 42.2 66.7 66.7 97.9 32.1 41.3 60.8 84.4 86.9 129.1 4.4 8.8 9.5 17.3 15.2 25.3 21.9 32.9 43.9 65 65.8 97.1l27.9 40.5c1.7-.8 2.5-.8 3.4-1.7.8-4.2-5.9-9.3-5.1-14.4.8 0 8.4.8 9.3.8 0 2.5.8 4.2 1.7 8.4.8-7.6 1.7-12.7 3.4-17.7 1.7-5.9-2.5-11-2.5-16-.8-9.3 2.5-19.4 4.2-28.7.8-.8-1.7-2.5-2.5-4.2h-2.5c0 17.7-7.6 32.9-7.6 49.8h-6.8c.8-8.4-5.1-11.8-5.1-16.9.8-9.3 8.4-16.9 9.3-25.3.8-11 .8-24.5 2.5-34.6.8 0 11 5.9 13.5 6.7-2.5-13.5-9.3-29.5-9.3-41.3.8 0 11.8 5.9 12.7 5.9 1.7 9.3 2.5 16 .8 26.2 4.2-1.7 5.9-2.5 6.7-5.1 3.4-14.3 6.7-29.5 8.4-43.9 1.7-16.9-.8-33.8 1.7-49.8 3.4-21.9-1.7-45.6 7.6-66.7 0-.8-1.7-2.5-1.7-3.4.8-7.6 2.5-14.3 4.2-21.9 1.7-5.1 2.5-10.1 3.4-15.2l-.8-.8c-.8 2.5-1.7 4.2-3.4 6.7-3.4-5.9-3.4-17.7-11.8-20.3v-43c0 4.2 10.1 9.3 11.8 11.8l7.6-2.5v-1.7h-2.5c-.8-4.2-3.4-9.3-1.7-11 5.1-6.7 0-13.5-1.7-16.9-7.6-14.3-11.8-27 5.1-39.7-.8 0-2.5-.8-3.4-1.7-2.5 2.5-12.7 3.4-15.2 5.1.8-11.8-5.1-23.6-4.2-35.4 0 2.5 5.9 1.7 6.7 4.2 1.7-3.4.8-5.9 1.7-8.4.8.8 5.9 5.9 6.7 5.9-2.5 8.4 3.4 16.9.9 26.2 11.7-27.2 6.6-55 6.6-82.9zM396.4 2133.3c5.9 6.7 11 14.4 16.9 21.1 2.5 3.4 8.4 5.1 13.5 7.6-9.3-11-18.6-21.1-27.9-31.2l-2.5 2.5zM1359.3 2503.8v2.5c.8 0 2.5.8 3.4.8 13.5-.8 27.8-.8 42.2-1.7 4.2 0 7.6-.8 11-1.7 2.5-.8 5.9-4.2 8.4-4.2 8.4 0 16.9.8 25.3 1.7v2.5c-5.1.8-11 1.7-16 2.5v1.7c17.7-2.5 35.4-4.2 54-6.7-8.4-5.1-18.6 5.1-22.8-7.6 1.7-.8 3.4-.8 5.1-1.7 1.7 7.6 6.7 3.4 11 2.5 11.8-1.7 24.5-3.4 36.3-5.9 4.2-.8 7.6-2.5 12.7-2.5-.8-1.7-.8-3.4-1.7-5.1-56.6 7.7-112.3 15.3-168.9 22.9z"/><path style="fill:#fff" d="M426.8 2162c-3.4 6.7 2.5 11.8 14.3 12.7-2.5-5.1-4.2-10.1-6.7-14.4-2.6.9-5.1.9-7.6 1.7zM1585.5 2473.5c-18.6 2.5-36.3 4.2-55.7 6.7 4.2 5.9 16.9 4.2 55.7-6.7zM1304.5 2510.6c15.8-.8 31.6-2.5 47.3-5v-2.5c-16 1.7-31.2 3.4-47.3 5.1v2.4z"/><path style="fill:#dd3735" d="M2534.9 1212.6c-.8-32.1-2.5-65-4.2-97.1-1.7-32.9-2.5-65.8-5.9-98.7-5.9-44.7-11.8-90.3-21.9-134.2-7.6-36.3-20.3-70.9-32.9-105.5-16-40.5-32.1-81.9-52.3-120.7-32.9-62.5-76-118.2-115.6-176.4-26.2-37.1-59.9-67.5-85.2-105.5-14.4-21.9-35.4-40.5-56.5-57.4-33.8-27-69.2-51.5-104.6-75.1-27-18.6-54-36.3-82.7-52.3-22.8-12.7-47.3-22.8-70.9-33.8-27-12.7-53.2-27.9-83.5-33.8-7.6-1.7-14.4-4.2-21.9-6.7-19.4-6.8-38-14.4-57.4-20.3-29.5-9.3-58.2-20.3-88.6-27.9-29.5-7.6-59.9-12.7-90.3-16.9-33.8-5.1-68.4-6.7-102.1-10.1-21.9-2.5-43.9-5.1-65-5.9-32.1-1.7-65-1.7-97.1-2.5-16-.8-32.9-2.5-48.9-1.7-24.5.8-48.9 3.4-73.4 6.8-23.6 2.5-47.2 6.7-70 10.1-27.8 3.4-55.7 5.1-83.5 8.4-26.2 3.4-53.2 8.4-79.3 12.7-9.3 1.7-18.6 5.1-27.9 6.7-20.3 4.2-41.4 5.9-61.6 12.7-36.3 11-72.6 23.6-108 37.1-32.9 13.5-65 27.9-96.2 44.7-32.1 17.7-62.5 38.8-92.8 59.1-28.7 19.4-57.4 39.7-85.2 61.6-27 21.1-52.3 44.7-76.8 68.4-13.5 13.5-24.5 29.5-37.1 44.7-21.1 24.5-42.2 48.1-62.5 73.4-16.9 21.1-32.1 43-48.1 65-28.7 38.8-53.2 80.2-76 121.5-9.3 16.9-17.7 33.8-26.2 50.6-12.7 25.3-26.2 49.8-38 76-8.4 17.7-15.2 37.1-20.3 56.5C72.6 887.6 61 929.3 49.9 971c-10.1 37.1-12.7 76-13.5 113.9-.8 33.8 2.5 66.7 5.9 100.4.8 8.4-4.2 18.6 5.9 25.3.8 0 0 3.4-.8 4.2-2.5 5.1 0 10.1 5.1 11.8 0 0 .8.8.8 1.7h-4.2c-2.5 7.6 5.9 13.5 2.5 21.9-.8 1.7 2.5 5.1 4.2 7.6 0 2.5-.8 5.9 0 8.4.8 7.6 4.2 15.2 4.2 23.6 0 5.9 5.1 12.7 6.7 18.6.8 2.5 0 6.7-1.7 8.4-5.1 5.9-4.2 11 3.4 14.4 1.7.8 4.2 4.2 4.2 5.9 0 5.1-1.7 10.1-2.5 15.2 1.7 1.7 2.5 3.4 1.7 5.1 0 2.5-2.5 5.1-1.7 6.8 6.7 13.5 9.3 28.7 10.1 43.9 0 3.4 1.7 6.8 3.4 11 .8 0 3.4 0 5.1.8l-5.1 15.2c4.2-2.5 7.6-3.4 11.8-5.1 2.5 11 5.1 21.1 8.4 30.4.8 1.7 2.5 3.4 5.1 5.1-.8 1.7-.8 5-2.5 5.9 3.4 15.2 5.1 29.5 11 43.9.8 0 1.7-.8 2.5-.8-2.5-15.2-4.2-31.2-6.7-46.4v-5.1s1.7-.8 2.5-.8c.8 3.4 2.5 7.6 2.5 10.1 6.7 0 16.9 4.2 23.6 4.2.8-2.5 1.7-5.9 2.5-7.6-5.1-5.1-9.3-12.7-14.4-17.7 1.7 6.7 0 9.3 0 11.8-3.4-1.7-7.6-3.4-11.8-5.1 3.4-4.2 6.8-8.4 11.8-13.5 0-7.6-4.2-14.3-16-13.5 5.1-1.7 10.1-4.2 16-5.9.8 2.5 1.7 5.1 2.5 6.7 6.7-11.8-3.4-21.1-3.4-32.9.8-14.3-7.6-28.7-10.1-43.9-4.2-23.6-3.4-59.1-5.9-82.7 0-1.7-2.5-3.4-4.2-5.1-.8.8-5.1 11.8-5.9 12.7 2.5 20.3 5.1 40.5 6.7 60.8-.8 0-1.7 0-1.7.8-3.4-17.7-6.7-36.3-11-56.5-.8 5.9-1.7 8.4-1.7 11.8-2.5-.8-3.4-1.7-7.6-3.4 3.4 7.6 6.8 12.7 9.3 18.6-5.9-2.5-12.6-1.7-12.6-1.7v23.6c-8.4-8.4-11-15.2-15.2-21.1-1.7-6.8-2.5-13.5-4.2-20.3l2.5-.8c-.8-3.4-2.5-5.9-2.5-8.4-.9-6.7-1.8-13.5-2.5-20.3.8-.8 4.2-1.7 5.9-3.4l-6.8-10.1c6.8.8 11 1.7 15.2 1.7 0-1.7.8-2.5 0-3.4-8.4-7.6-2.5-14.4.8-21.1 1.7-3.4 7.6-4.2 9.3-7.6 6.8-12.7 17.7-22.8 17.7-38.8 0-7.6 2.5-16 3.4-23.6 1.7-14.3 3.4-28.7 4.2-43 1.7-18.6 0-37.1 4.2-54.9 6.7-29.5 15.2-59.1 24.5-88.6 6.7-21.1 14.3-41.4 22.8-62.5 12.7-32.9 24.5-65.8 40.5-97.1 22.8-45.6 49-89.5 74.3-134.2 16-27.9 32.9-54 50.6-81 16.9-26.2 33.8-53.2 53.2-77.6 27-34.6 56.5-66.7 89.5-95.4 33.8-30.4 65.8-61.6 102.1-89.5 47.3-36.3 97.1-68.4 150.2-96.2 43-22.8 87.8-40.5 132.5-57.4 28.7-11 59.9-16 89.5-25.3 33.8-11 67.5-16 103-16.9 22.8-.8 44.7-3.4 67.5-5.9 20.3-1.7 40.5-3.4 62.5-5.9-1.6 2.1-3.1 4.4-4.2 6.7-9.3 13.5-19.4 27-28.7 40.5-7.6 11-16 22.8-23.6 33.8-13.5 17.7-27.9 35.4-40.5 54-19.4 27.9-37.1 56.5-57.4 84.4-20.3 27-42.2 52.3-63.3 78.5-27.9 36.3-54 73.4-81.9 109.7-25.3 34.6-52.3 67.5-76.8 102.1-21.9 30.4-41.4 62.5-62.5 93.7-31.2 46.4-62.5 92-93.7 138.4-24.5 35.4-49.2 70.5-74.3 105.5-1.7 2.5-4.2 3.4-6.7 5.1-1.7 1.7-5.1 3.4-5.1 5.1-1.7 5.9-1.7 11.8-4.2 16.9-6.7 12.7-13.5 25.3-21.1 37.1-4.2 6.7-10.1 12.7-15.2 19.4-1.7-.8-2.5-1.7-4.2-1.7 3.4-8.4 17.7-13.5 11-26.2-4.2 6.7-8.4 12.7-12.7 19.4l-10.1 20.3c3.4 2.5 9.3 4.2 3.4 9.3-2.5 4.2-5.1 9.3-7.6 13.5.8 0 .8.8 1.7.8 2.5-3.4 5.1-5.9 7.6-9.3.8 0 1.7.8 2.5.8-2.5 8.4-7.6 16-11.8 23.6-3.4 6.7-11.8 11.8-17.7 16.9.8.8 6.8 3.4 7.6 4.2 2.5-3.4 3.4-1.7 5.9-5.1 1.7 2.5 4.2-1.7 5.1.8 2.5-3.4 5.1-5.9 5.9-8.4 3.4-8.4 8.4-15.2 16.9-18.6 3.4-1.7 5.9-4.2 8.4-6.8 25.3-26.2 51.5-51.5 74.3-79.3 35.4-43 67.5-87.8 101.3-131.7 14.4-18.6 31.2-37.1 46.4-54.9 1.7.8 3.4.8 4.2 1.7-1.7 17.7-3.4 36.3-4.2 54-2.5 31.2-4.2 62.5-6.7 94.5-.8 12.6 0 25.3-.8 38 0 3.4-2.5 5.9-2.5 9.3 0 8.4 2.5 17.7 2.5 26.2-2.5 31.2-5.9 61.6-8.4 92.8-.8 6.8 2.5 13.5 4.2 19.4-.8-.8-1.7-1.7-4.2-3.4 0 49 9.3 97.1 1.7 145.2 3.4-.8 5.1-1.7 5.1-3.4.8-5.9 2.5-11.8 2.5-17.7.8-5.1 0-10.1 0-16v-8.4c.8-15.2 4.2-31.2 2.5-46.4-1.7-16.9-1.7-32.9 1.7-49 1.7-6.7-.8-15.2 3.4-23.6v12.7c-.8 48.1.8 96.2-5.9 144.3-.8 4.2 2.5 11.8-6.7 11-.8 0-1.7 4.2-3.4 6.8-4.2 8.4 5.1 19.4-3.4 27.8-1.7 1.7 1.7 9.3 2.5 14.4 0 1.7.8 3.4 0 4.2-3.4 5.9-3.4 5.9 1.7 6.7.8 18.6 2.5 35.4 3.4 53.2h2.5c11-32.1 4.2-65 10.1-97.9.8 13.5 1.7 27 .8 41.3 0 21.9-.8 43-1.7 65 0 4.2-.8 8.4-1.7 12.7-2.5 11.8-3.4 23.6-7.6 34.6-3.4 8.4-1.7 21.1-1.7 31.2v32.1c0 .8 2.5 3.4 2.5 6.8.8 7.6-3.4 15.2-.8 23.6.8 1.7-.8 4.2-1.7 5.9-.8 2.5-1.7 5.1-.8 7.6l2.5 12.7c0 .8.8 1.7 1.7 3.4.8-3.4.8-5.9.8-6.7 14.3 1.7 6.7 14.3 13.5 21.1-3.4 1.7-5.9 2.5-5.9 3.4.8 3.4 2.5 5.9 2.5 9.3 0 7.6-.8 14.4-1.7 21.9 0 19.4-.8 38.8-.8 57.4 0 2.5.8 5.1.8 7.6 0 1.7-.8 3.4-.8 5.9v17.7h3.4c-1.7 2.5-3.4 5.1-5.9 7.6-.8 0-3.4 0-3.4-.8v-106.3h-12.7c-1.7 50.6 2.5 96.2-6.7 143.5-10.1.8-13.5 2.5-24.5 2.5-26.2 0-52.3 0-78.5.8-31.2 0-61.6.8-92.8.8-15.2 0-31.2 1.7-46.4 1.7-20.3 0-41.3-2.5-61.6-2.5-31.2 0-61.6 2.5-92.8 3.4-22.8.8-45.6.8-68.4 1.7-15.2.8-30.4 1.7-45.6 3.4-6.7.8-12.7 3.4-21.1 5.9-2.5 0-8.4-.8-13.5 0-8.4 1.7-16 6.8-24.5 8.4-12.7 2.5-16 5.9-14.4 18.6v8.4c-1.8-1.7-3.7-3.1-5.9-4.2-.8 0-1.7.8-1.7.8.8 2.5 2.5 4.2 3.4 6.8 3.4-1.7 7.6-5.9 11-5.9h11.8c-1.7 0-2.5 5.1-5.1 9.3 5.1-1.9 10.2-3.9 15.2-5.9.8 2.5.8 5.9.8 6.8 11.8-.8 22.8-4.2 32.9-1.7 32.9 8.4 66.7 11.8 100.4 15.2 21.9 1.7 43 2.5 65 3.4 31.2 1.7 62.5 3.4 93.7 3.4 26.2 0 51.5-2.5 77.6-2.5 36.3 0 72.6 1.7 108.9 2.5 7.6 0 16-.9 24.5-.9h61.6c54.9-1.7 109.7-2.5 164.6-4.2 31.2-.8 63.3-2.5 94.5-3.4l96.2-2.5c37.1-.8 74.3-.8 110.6-1.7 27.9 0 54.9-.8 82.7-1.7 31.2-.8 63.3-3.4 94.5-5.1 16.9-.8 33.8-2.5 50.6-4.2 20.3-1.7 41.3-4.2 61.6-5.1 30.4-1.7 61.6-2.5 92-4.2 38-2.5 76-5.9 114.8-6.7 35.4-1.7 71.7-.8 107.2-1.7 31.2-.8 62.5-2.5 94.5-3.4l53.2-2.5s35.4-.8 53.2-2.5c30.4-1.7 60.8-5.1 91.1-5.9 19.4-.8 38.8 0 58.2-.8 31.2-.8 63.3-2.5 94.5-2.5 11.8 0 24.5 1.7 39.7 2.5-6.7 5.9-11 9.3-16 13.5 3.4.8 6.7 2.5 10.1 4.2 0 .8-.8 1.7-.8 3.4-4.2 0-8.4.8-12.7.8-1.7 4.2-3.4 5.9-5.1 14.4h15.2c-5.9 0-11 7.6-16.9 12.6.8.8 1.7.8 2.5 1.7-9.3-3.4-15.2-1.7-18.6 7.6 2.5.8 4.2.8 6.7.8-.8 2.5-1.7 5.1-2.5 8.4-.8 1.7-1.7 3.4-1.7 5.9l-2.5-2.5c0-1.7 0-3.4-.8-5.1-5.1 5.1-12.7 8.4-8.4 19.4-3.4 1.7-7.6 3.4-11.8 5.9.8 1.7 2.5 3.4 3.4 5.9-7.6.8-15.2 2.5-13.5 11.8 3.4.8 6.7 2.5 9.3 3.4-4.2 1.7-8.4 4.2-12.7 5.9-.8 1.7-1.7 5.9-3.4 6.8-11.8 2.5-5.1 6.7-1.7 11-2.5 1.7-5.1 3.4-7.6 4.2 2.5.8 4.2 1.7 5.9 3.4-2.5 1.7-4.2 2.5-5.9 3.4 1.7.8 4.2 2.5 5.1 2.5-3.4 2.5-7.6 5.9-12.7 10.1 0 1.7 0 2.5.8 4.2-3.4 3.4-6.7 6.7-10.1 11.8-3.4 5.1-5.1 11.8-9.3 16.9-17.7 19.4-30.4 42.2-53.2 57.4-8.4 5.9-16 13.5-23.6 21.1-15.2 14.4-28.7 30.4-44.7 43.9-21.1 17.7-43 33.8-65.8 49.8-27.8 19.4-55.7 38.8-83.5 57.4-15.2 10.1-32.1 17.7-48.1 27s-31.2 17.7-47.3 27c-10.1 6.8-19.4 16-30.4 21.1-27.9 11.8-57.4 21.9-86.1 32.9-2.5.8-4.2 1.7-6.8 2.5-21.1 9.3-41.3 19.4-62.5 27-19.4 6.7-39.7 11.8-59.9 16-6.7 1.7-14.4 0-21.9.8-14.4 2.5-28.7 5.9-43 7.6-37.1 5.1-74.3 8.4-111.4 13.5-21.9 2.5-43 6.7-65 9.3-15.2.8-31.2-.8-46.4-.8-11 0-22.8 2.5-33.8.8-17.7-2.5-35.4-6.7-53.2-10.1-4.2-.8-10.1-2.5-13.5-.8-6.7 3.4-12.7-1.7-19.4 0-4.2.8-8.4-2.5-12.7-2.5-3.4-.8-7.6.8-11.8 0-9.3-2.5-17.7-5.9-27.8-5.1-10.1.8-20.3-4.2-31.2-6.7-15.2-3.4-29.5-6.8-44.7-10.1-5.9-1.7-11-4.2-16.9-7.6-1.7.8-4.2 2.5-7.6 2.5-14.4-2.5-28.7-3.4-42.2-8.4-11.8-4.2-22.8-10.1-35.4-8.4-3.4.8-5.9-.8-9.3-.8-2.5-3.4-5.1-10.1-7.6-10.1-16.9.8-27-13.5-41.4-17.7-7.6-2.5-13.5-11-21.1-13.5-18.6-7.6-33.8-23.6-54.9-26.2-6.8-.8-13.5-4.2-21.1-6.8 2.5 3.4 4.2 5.9 6.7 8.4l-1.7 1.7c-22.8-13.5-45.6-27-68.4-39.6-3.4-.9-5.9-4.2-8.4-5.9l-22.8-15.2c-2.5-1.7-7.6-4.2-7.6-3.4-5.1 5.9-10.1.8-13.5-.8-22.8-16-49-26.2-70.9-43.9-9.3-7.6-20.3-12.7-27-21.9-11.8-14.3-26.2-24.5-42.2-32.9-12.7-6.7-24.5-14.3-36.3-21.9-5.9-4.2-11.8-9.3-11.8-18.6 0-5.9-2.5-11.8-10.1-8.4-3.4-5.1-6.7-11-11-12.7-10.1-4.2-16.9-11.8-24.5-18.6-7.6-6.8-13.5-16-22.8-19.4-16.9-6.8-27-21.1-37.1-32.9-23.6-27.9-44.7-58.2-66.7-87.8-1.7-2.5-5.1-4.2-7.6-6.7l-.8.8c4.2 8.4 8.4 16 12.7 24.5-.8.8-2.5 1.7-3.4 2.5-5.1-5.9-11-11.8-16-17.7-.8.8-1.7 1.7-2.5 1.7L340 2005c5.1 7.6 9.3 15.2 14.3 22.8-1 1-2.1 1.9-3.4 2.5-9.3-1.7-17.7-8.4-21.9-16-7.6-13.5-16-21.9-32.9-20.3-1.7-5.9-3.4-12.7-4.2-18.6-3.4 0-5.9 0-11.8-.8 11.8 18.6 21.9 34.6 32.9 53.2-4.2-2.5-6.7-4.2-8.4-5.1 15.2 16 26.2 36.3 45.6 46.4 4.2 19.4 26.2 28.7 31.2 47.3-4.2-.8-7.6-1.7-11.8-2.5-6.7-8.4-14.4-16.9-21.9-26.2 1.7 5.9 4.2 11 7.6 15.2 10.1 12.7 19.4 25.3 31.2 36.3 4.2 4.2 10.1 5.9 10.1 13.5 1.7-1.7 3.4-2.5 6.7-4.2-1.7 3.4-2.5 5.1-3.4 7.6 3.4 0 5.9.8 8.4.8 1.7 5.1-.8 12.7 9.3 11 .8 0 1.7.8 2.5 1.7 4.2 11 11 11 20.3 6.7 1.7-.8 5.9 0 6.7 1.7 4.2 9.3 10.1 10.1 17.7 3.4 0 4.2.8 8.4.8 11.8h3.4c0-1.7-.8-4.2-.8-8.4 4.2 3.4 6.7 5.1 8.4 6.8 8.4 11.8 16 22.8 27.9 32.1 16 13.5 30.4 27.9 45.6 40.5 29.5 24.5 62.5 44.7 95.4 63.3 40.5 22.8 79.3 47.3 120.7 69.2 49.8 26.2 103 43.9 157.8 56.6 20.3 4.2 39.7 8.4 59.9 13.5 17.7 5.1 35.4 12.7 53.2 16.9 27 5.9 54.9 11 81.9 16 5.9.8 11.8 1.7 18.6 2.5v1.7c7.6 0 16.9-3.4 18.6-.8 4.2 6.8 7.6 3.4 12.7 2.5 5.9-1.7 12.7-1.7 19.4-1.7 23.6.8 46.4 5.9 70 4.2 5.1 0 12.7-4.2 16.9 4.2 1.7-.8 2.5-1.7 4.2-2.5 3.4-.8 7.6-.8 11-1.7v1.7c-1.7.8-3.4.8-6.7 1.7 4.2.8 6.7 1.7 9.3 2.5-1.7 1.7-2.5 1.7-4.2 2.5s-4.2 1.7-7.6 4.2c30.4 5.9 59.1 6.8 84.4 0v-5.1h3.4c0 1.7.8 3.4 1.7 5.1 38.8 3.4 76.8-1.7 113.1-14.3 3.4 4.2 5.9 10.1 11 1.7 1.7-2.5 5.9-3.4 9.3-4.2 7.6-1.7 16.9-5.1 23.6-2.5 7.6 2.5 10.1-4.2 16-4.2 9.6 0 19.2-.8 28.7-2.5 5.1-.8 10.1-3.4 16-5.1 0-.8 0-1.7-.8-2.5-5.9-.8-12.7-1.7-17.7-1.7 10.1-5.1 19.4-9.3 28.7-13.5 0 .8.8.8.8 1.7-2.5.8-4.2 4.2-7.6 4.2h11.8c-2.5 0-5.9 7.6-10.1 12.7 30.4-7.6 58.2-14.3 85.2-21.1v-1.7c-3.4.8-5.9.8-8.4 1.7-.8-17.7 18.6-11.8 25.3-21.9-8.4 2.5-16.9 5.1-25.3 6.7v-1.7c28.7-12.7 58.2-25.3 86.9-38 0 .8.9.8.9 1.7-5.1 3.4-10.1 5.9-17.7 10.1 5.1.8 8.4.8 11 1.7 0 2.5 0 4.2-.8 5.1 14.3-.9 11-13.5 15.2-21.1 2.5.8 5.9 2.5 8.4 1.7 7.6-1.7 14.3-4.2 21.9-6.7 8.4-2.5 16.9-5.1 25.3-8.5 13.5-5.9 26.2-13.5 39.7-20.3 2.5-.8 6.7 0 10.1 0 2.5 0 4.2-1.7 5.9-3.4 3.4-2.5 6.7-7.6 9.3-6.8 11.8 1.7 20.3-2.5 23.6-13.5.8 0 .8-.8 1.7-.8 4.2-3.4 8.4-6.7 12.7-9.3 18.6-10.1 36.3-20.3 54.9-30.4.8-.8 2.5 0 4.2 0 2.5 0 5.9 0 7.6-.8 11-5.1 21.1-11 31.2-16.9-2.5-.8 0-1.7-8.4-2.5v-1.7c8.4-1.7 11-2.5 16-4.2l-1.7-1.7c21.9-21.9 49.8-38 70.9-56.5 4.2.8 5.9 1.7 8.4 1.7.8-2.5.8-5.1.8-6.7 3.4-4.2 6.7-9.3 11-12.7 18.6-16.9 38.8-31.2 55.7-49 24.5-24.5 48.1-49.8 70-75.9 20.3-23.6 40.5-47.3 57.4-73.4 23.6-36.3 43.9-73.4 65-111.4 15.2-27 28.7-54 43.9-81 1.7-2.5 5.1-5.9 7.6-5.9 22.8-2.5 45.6-4.2 67.5-6.8 5.1-.8 11-4.2 16-6.7-2.5-4.2-4.2-9.3-6.8-13.5-3.4-5.1-8.4-9.3-11.8-14.3-3.4-4.2-5.9-9.3-8.4-14.3-2.5-4.2-5.1-7.6-7.6-11.8-5.1-9.3-10.1-18.6-14.4-28.7-.8-2.5-2.5-6.8-1.7-9.3 15.2-32.9 21.1-68.4 35.4-101.3 14.3-33.8 18.6-71.7 25.3-108 5.9-34.6 9.3-69.2 13.5-103.8 2.5-24.5 5.9-48.1 6.8-72.6 4.7-39.1 3.1-75.4 2.2-111.7zM426.8 2162c-5.1-2.5-11-4.2-13.5-7.6-5.9-6.7-11-14.3-16.9-21.1l2.5-2.5c9.3 10.1 18.6 20.3 27.9 31.2 2.5-.8 5.1-.8 7.6-1.7 2.5 4.2 4.2 9.3 6.7 14.4-11.8-.9-17.7-5.9-14.3-12.7zm924.9 343.5c-15.7 2.5-31.4 4.2-47.3 5v-2.5c16-1.7 31.2-3.4 47.3-5.1v2.6zm165.4-16.9c-11.8 2.5-24.5 4.2-36.3 5.9-4.2.8-9.3 5.1-11-2.5-1.7.8-3.4.8-5.1 1.7 4.2 12.7 14.4 2.5 22.8 7.6-18.6 2.5-36.3 4.2-54 6.7v-1.7c5.1-.8 11-1.7 16-2.5v-2.5c-8.4-.8-16.9-1.7-25.3-1.7-2.5 0-5.9 3.4-8.4 4.2-3.4.8-6.8 1.7-11 1.7-14.4.8-28.7.8-42.2 1.7-.8 0-2.5-.8-3.4-.8v-2.5c56.5-7.6 112.2-15.2 168.8-22.8.8 1.7.8 3.4 1.7 5.1-5-.1-8.4 1.6-12.6 2.4zm12.7-8.4c19.4-2.5 37.1-4.2 55.7-6.7-38.8 10.9-51.5 12.6-55.7 6.7zM794.7 776.3c27-37.1 54.8-74.3 81.9-112.2 8.4-11 15.2-22.8 23.6-33.8 2.5-3.4 5.9-5.1 10.1-8.4l-.8-1.7c3.4-4.2 6.7-7.6 8.4-11 4.2-6.7 6.8-14.3 10.1-21.9.8-1.7 3.4-3.4 3.4-3.4 11.8 5.9 11.8-6.8 16-11 7.6-8.5 14.9-17.2 21.9-26.2 5.1-6.7 10.1-12.7 14.3-20.3.8-2.5-1.7-6.7-2.5-10.1h-2.5c2.5-1.7 5.1-4.2 7.6-5.9.8 0 .8 0 1.7-.8 5.1-7.6 10.1-15.2 15.2-21.9 10.1-13.5 21.1-27 32.9-38.8-1.7 4.2-3.4 8.4-5.1 11.8.8 0 .8.8 1.7.8 10.1-13.5 21.1-26.2 31.2-39.7-.8-.8-1.7-1.7-2.5-1.7-4.2 4.2-7.6 8.4-11.8 12.7-.8-.8-1.7-1.7-2.5-1.7 8.5-11 16.9-21.9 25.3-34.6 1.7 2.5 3.4 5.9 6.7 12.7 3.4-8.4 6.8-14.4 9.3-20.3-2.5 2.5-5.9 5.1-8.4 7.6l-2.5-2.5 15.2-22.8c16-22.8 32.1-46.4 48.1-69.2 5.9-8.4 13.5-15.2 18.6-23.6 16-32.1 41.4-57.4 60.8-86.9 4.2-5.9 10.1-11 15.2-16 4.2-5.1 7.6-3.4 11 .8 22.8 28.7 45.6 58.2 68.3 86.9 16.9 21.1 33.8 41.4 49.8 63.3 19.4 27 38 54 57.4 81 21.9 31.2 43.9 62.5 65 94.5 32.1 47.2 62.5 94.5 94.5 141.8 23.6 34.6 47.3 68.4 70 103h-43c-39.7-.8-80.2-4.2-119.8-2.5-54 2.5-108.9 8.4-162.9 12.7-68.4 5.9-137.6 6.8-205.9 6.8-24.5 0-49 3.4-73.4 5.1-29.5 1.7-58.2 3.4-87.8 4.2-34.6 1.7-68.4 2.5-103 3.4-19.4.6-39.7-.2-60.8-.2zm966.3 300.4c.8 28.7 1.7 58.2 1.7 87.8v7.6c-.8 0-1.7.8-3.4.8-3.4-11.8-6.7-24.5-11-36.3-8.4-24.5-17.7-48.9-32.9-70.9-16.9-23.6-32.1-48.1-49-72.6-4.2-5.9-10.1-11-15.2-16-17.7-19.4-35.4-39.7-58.2-54-33.8-21.1-68.4-38.8-105.5-54-10.1-4.2-19.4-9.3-29.5-15.2h20.3l144.3-2.5c31.2-.8 61.6-.8 92.8-2.5 7.6 0 11.8 2.5 16 9.3 7.6 12.7 15.2 25.3 23.6 38 .8 1.7 2.5 4.2 2.5 6.7 0 18.6 0 38 .8 56.5.8 19.4 2.5 38 3.4 57.4.2 19.4-1.5 39.7-.7 59.9zM854.6 881.8c39.7-1.7 77.6-4.2 116.5-5.9 30.4-1.7 61.6-2.5 92-4.2 12.7-.8 24.5-1.7 37.1 0-13.5 6.7-27 13.5-38.8 21.9-15.2 10.1-29.5 23.6-44.7 34.6-15.2 11-28.7 24.5-41.3 38.8-16 19.4-33.8 36.3-50.6 54.9-11.8 13.5-25.3 26.2-35.4 40.5-14.4 18.6-27 38.8-40.5 59.9 4-80.2 9.1-159.5 5.7-240.5zm551.1 811.8c-27 6.7-54.9 14.4-82.7 17.7-23.6 3.4-48.1 2.5-72.6 2.5-21.9 0-43-.8-65-2.5-24.5-2.5-48.9-5.1-72.6-16-20.3-9.3-41.3-17.7-61.6-27.9-20.3-10.1-40.5-21.9-55.7-40.5-11-13.5-26.2-24.5-39.7-36.3 2.5 10.2 8.8 19 17.7 24.5-4.2 5.1-10.1 2.5-18.6-11-2.5 1.7-5.1 2.5-6.8 3.4 2.5-5.9 5.1-11.8 7.6-16.9-3.4-6.7-7.6-14.3-11-21.1-6.8-11.1-13.3-22.3-19.4-33.8-1.7-2.5-1.7-5.1-3.4-7.6-4.2-5.1-8.4-10.1-11.8-15.2-6.7-10.1-12.7-21.1-21.1-31.2 0 2.5.8 5.1.8 8.4-.8 0-1.7.8-1.7.8l-17.7-43c-.8 0-.8 0-1.7.8l15.2 55.7c-.8 0-1.7.8-2.5.8-2.5-3.4-5.1-6.8-6.7-11-1.7-6.7-6.7-6.7-11-4.2-2.5 1.7-4.2 7.6-3.4 10.1 5.9 14.4 12.7 28.7 19.4 43 1.7 5.1 3.4 9.3 5.9 14.4.8 1.7 3.4 3.4 3.4 5.9 3.4 6.7 5.9 13.5 10.1 19.4 7.6 10.1 16 20.3 23.6 30.4 7.6 10.1 14.3 21.1 21.1 31.2.8 1.7 3.4 1.7 4.2 2.5 4.2 12.6 18.6 21.9 28.7 16.9 2.5 19.4 23.6 26.2 32.1 44.7-8.3-3.4-16.5-7-24.5-11-.8.8-.8 1.7-1.7 3.4 10.1 5.1 20.3 10.1 29.5 16 8.4 5.1 16.9 10.1 24.5 16 10.1 9.3 21.9 14.4 36.3 17.7-.8-2.5-1.7-3.4-1.7-3.4 22.4 10.4 44.6 21.1 66.7 32.1-87.8 1.7-181.4 3.4-278.5 5.1 0-16-.8-31.2-.8-47.3 0-6.7 1.7-12.7.8-19.4-2.5-38.8-2.5-77.6-7.6-115.6-5.1-40.5-5.1-80.2-4.2-120.7.8-21.9-.8-44.7-1.7-66.7 0-29.5 0-58.2.8-87.8 0-4.2 1.7-7.6 3.4-11.8h2.5c.8 1.7 0 4.2 1.7 5.1 2.5 2.5 6.7 6.7 8.4 5.9 5.1-3.4 12.7-6.8 14.3-11.8 4.2-10.1 5.9-21.1 5.9-31.2 0-7.6 3.4-12.7 6.7-17.7 1.7-2.5 2.5-5.1 4.2-8.4-3.4-2.5-6.8-4.2-11-7.6 3.4-9.3 2.5-20.3 15.2-25.3 1.7-.8 1.7-5.1 2.5-7.6.8-6.7 1.7-14.3 2.5-21.1 1.7 2.5 2.5 3.4 4.2 5.1.8-1.7 1.7-2.5 1.7-2.5 0-3.4-.8-10.1 0-10.1 10.1-1.7 5.9-12.7 11-17.7.8-.8-.8-3.4-.8-5.1 0-1.7 0-4.2.8-4.2 11.8-2.5 10.1-15.2 17.7-21.1 2.5-1.7 3.4-4.2 6.8-8.4 6.7 11.8-5.1 17.7-5.9 26.2 14.3-8.4 18.6-28.7 10.1-34.6 3.4-2.5 6.7-5.9 9.3-9.3 9.3-10.1 19.4-19.4 27.9-29.6 5.9-7.6 9.3-16.9 15.2-24.5 3.4-4.2 10.1-7.6 15.2-10.1 15.2-8.4 29.5-17.7 38.8-32.1 1.7-1.7 4.2-3.4 6.7-5.1 2.5-1.7 7.6-1.7 8.4-4.2.8-1.7-1.7-5.9-3.4-8.4 3.4-1.7 6.8-5.1 13.5-8.4-2.5 5.1-3.4 8.4-5.1 11.8l4.2 4.2c7.6-5.9 19.4-12.7 27-17.7 0-.8-4.2-4.2-4.2-4.2-5.1 2.5-12.7 6.8-20.3 10.1 1.7-2.5 1.7-4.2 2.5-5.1 11.8-7.6 23.6-15.2 36.3-21.1 29.5-13.5 59.1-27 88.6-39.7 5.1-2.5 11.8-.8 17.7-.8 2.5 0 4.2 0 6.8-.8 13.5-4.2 27-8.4 40.5-11.8 6-1.7 12.3-2.5 18.6-2.5 25.3.8 50.6.8 76 2.5 11 .8 21.1 3.4 31.2 6.7 12.7 4.2 26.2 10.1 38 16 14.3 7.6 28.1 16.1 41.4 25.3 24.5 16 47.3 33.8 71.7 48.1 23.6 14.4 42.2 33.8 57.4 55.7 18.6 26.2 39.7 49.8 48.1 81.9l12.7 55.7c2.5 10.1 8.4 20.3 5.9 32.1-4.2 21.1-7.6 43-11 64.1-1.7 8.4-3.4 16.9-2.5 25.3 1.7 26.2-8.4 48.9-18.6 72.6-3.4 7.6-8.4 15.2-12.7 23.6.8.8 5.9 3.4 6.7 3.4l7.6-15.2c.8 0 .8 0 1.7.8-4.2 11.8-7.6 24.5-11.8 36.3-10.1 26.2-20.3 53.2-32.9 78.5-6.8 14.4-18.6 26.2-27 39.7-8.4 11.8-15.2 24.5-23.6 35.4-7.6 9.3-15.2 18.6-25.3 25.3-22.8 16.9-46.4 33.8-70.9 47.3-14.6 9.6-32.3 14.6-49.2 18.8zm-449.8-44.7-.8.8c-1.7-.8-4.2-1.7-5.9-3.4l-20.3-30.4c-1.7-2.5-2.5-5.1-1.7-8.5 9.1 14.3 18.7 28.1 28.7 41.5zm525 115.6c38-16 69.2-38.8 97.9-65 4.2-4.2 8.4-8.4 13.5-11.8 35.4-21.9 61.6-52.3 85.2-86.1 27-38.8 44.7-82.7 66.7-124.1 1.7-3.4 3.4-6.8 5.1-9.3-1.7 96.2 9.3 190.7 21.9 286.1-95.4 3.5-192.5 6.9-290.3 10.2zm855.7-25.3c-.8 1.7-2.5 3.4-3.4 5.1-.8-1.7-.8-4.2-1.7-7.6-5.1 13.5-16 6.7-23.6 6.7-45.6.8-92 .8-137.6.8-43.9 0-88.6 0-132.5.8-14.4 0-29.5 3.4-43.9 4.2-34.6 1.7-69.2 2.5-103.8 3.4-2.5 0-5.1-4.2-9.3-7.6-.8 1.7-2.5 4.2-5.1 7.6-.8-1.7-2.5-3.4-4.2-5.9-.7 2.3-1.6 4.6-2.5 6.7h-2.5c-1.7-11.8-5.1-22.8-5.1-34.6 0-25.3 2.5-50.6 3.4-76 .8-11.8 0-22.8 0-33.8 3.4 2.5 5.9 4.2 9.3 6.8 1.7-3.4 3.4-5.9 5.1-8.4 0 0-1.7-.8-3.4-2.5 1.7-.8 3.4-2.5 3.4-3.4.8-2.5 2.5-5.1 2.5-6.8 0-5.9-1.7-11-2.5-16 .9 0 1.7 0 2.5-.8l5.1 25.3h2.5c-3.4-5.9 7.6-11-1.7-17.7-.8-.8.8-5.9.8-8.4-2.5-5.1-4.2-10.1-6.8-16.9.8-.8 3.4-1.7 5.9-2.5-3.4-1.7-5.9-3.4-8.4-4.2 8.4-7.6 8.4-11.8.8-20.3 1.7-.8 3.4-.8 3.4-1.7 0-7.6 0-15.2-1.7-22.8-1.7-8.4 2.5-18.6-10.1-23.6l.6 1.5-.3.3c.2 0 .3 0 .5.1.7 1.7 1.6 3.3 2.7 4.9 0 0-2.5.8-5.1 2.5-11-10.1-4.2-23.6-6.7-38.8 5.9 1.7 10.1 3.4 14.3 5.1-1.7-5.9-5.9-12.7-8.4-20.3h-3.4v-55.7c0 .8 5.9.8 9.3 1.7 0-.8.8-1.7.8-2.5-2.5-3.4-5.9-6.7-9.3-11l1.7-1.7c-6.8-8.4-3.4-20.3-3.4-22.8v-59.1c8.4 8.4-4.2 19.4 8.4 24.5v-8.4h-.8c-.8-12.7-.8-25.3-1.7-38h-1.7c-.8 1.7-.8 2.5-1.7 4.2h-1.7c1.7-66.7 3.4-133.3 5.1-201.7 8.4 11 17.7 21.1 23.6 32.1 19.4 35.4 44.7 65.8 68.4 97.9 20.3 27.9 38.8 58.2 57.4 86.9 22.8 34.6 44.7 69.2 67.5 103.8 17 26.2 34.4 52.1 52.3 77.6 16 22.8 32.9 44.7 49.8 66.7 14.3 19.4 29.5 38.8 43.9 58.2 16.9 23.6 33.8 47.3 50.6 70 8.4 11.8 17.7 23.6 27 35.4 5.1 6.7 12.7 11.8 17.7 16-.8 0-1.7 0-3.4-.8 2.5 3.4 4.2 5.9 5.9 7.6 9.4 5.2 10.2 10.3 5.2 17.9zm43-211v-5.9c0 1.7.9 4.2 0 5.9zm28.7-372.1c-.8 0-5.9-5.1-6.7-5.9-.8 2.5 0 5.1-1.7 8.4-.8-2.5-6.7-1.7-6.7-4.2-.8 11.8 5.1 23.6 4.2 35.4 2.5-1.7 12.7-2.5 15.2-5.1.8.8 2.5 1.7 3.4 1.7-16.9 12.7-12.7 25.3-5.1 39.7 1.7 3.4 6.8 10.1 1.7 16.9-1.7 1.7.8 6.8 1.7 11h2.5v1.7l-7.6 2.5c-1.7-2.5-11.8-7.6-11.8-11.8v43c8.4 2.5 8.4 14.4 11.8 20.3 1.7-2.5 2.5-4.2 3.4-6.7l.8.8c-.8 5.1-1.7 10.1-3.4 15.2-1.7 7.6-3.4 14.4-4.2 21.9 0 .8 1.7 2.5 1.7 3.4-9.3 21.1-4.2 44.7-7.6 66.7-2.5 16 0 32.9-1.7 49.8-1.7 14.4-5.1 29.5-8.4 43.9-.8 2.5-2.5 3.4-6.7 5.1 1.7-10.1.8-16.9-.8-26.2-.8 0-11.8-5.9-12.7-5.9 0 11.8 6.7 27.9 9.3 41.3-2.5-.8-12.7-6.7-13.5-6.7-1.7 10.1-1.7 23.6-2.5 34.6-.8 8.4-8.4 16-9.3 25.3 0 5.1 5.9 8.4 5.1 16.9h6.8c0-16.9 7.6-32.1 7.6-49.8h2.5c.8 1.7 3.4 3.4 2.5 4.2-1.7 9.3-5.1 19.4-4.2 28.7 0 5.1 4.2 10.1 2.5 16-1.7 5.1-2.5 10.1-3.4 17.7-.8-4.2-1.7-5.9-1.7-8.4-.8 0-8.4-.8-9.3-.8-.8 5.1 5.9 10.1 5.1 14.4-.8.8-1.7.8-3.4 1.7l-27.9-40.5c-21.9-32.1-43.9-64.1-65.8-97.1-5.7-8.1-10.8-16.5-15.2-25.3-26.2-44.7-54.9-87.8-86.9-129.1-24.5-31.2-43.9-65-66.7-97.9-21.1-31.2-42.2-61.6-63.3-92.8-7.6-10.1-16.9-19.4-23.6-30.4-21.9-34.6-41.3-70.1-63.3-104.7-18.6-28.7-38.8-56.5-58.2-84.4-6.9-9.7-13.7-19.6-20.3-29.5-.8-1.7-1.7-3.4-1.7-5.9-1.7-18.6-3.4-37.1-4.2-54.9 0-16.9 1.7-33.8 1.7-51.5v-15.2c0-4.2.8-7.6.8-11.8.8-.8 1.7-2.5 2.5-3.4-24.5 0-49.8-.8-74.3 0-16 .8-24.5-5.9-35.4-17.7-32.1-36.3-55.7-77.6-83.5-116.5-26.2-37.1-53.2-73.4-80.2-109.7-21.9-29.5-43.9-58.2-65.8-87.8-24.5-33.8-48.1-67.5-73.4-101.3-30.4-40.5-61.6-81-92.8-121.5-14.4-18.6-30.4-36.3-46.4-55.7 11 1.7 21.1 3.4 31.2 4.2l40.5 2.5c30.4 2.5 60.8 4.2 91.1 8.4 25.3 3.4 50.6 8.4 76.8 12.7 55.7 9.3 110.5 24.5 163.7 42.2 31.2 10.1 61.6 23.6 92 36.3 68.4 27.9 133.3 61.6 197.5 97.1 20.3 11 32.1 28.7 47.3 44.7 21.9 22.8 43.9 45.6 65 69.2 24.5 27.9 47.3 56.5 70.9 85.2 21.1 25.3 43 50.6 64.1 76 6.8 7.6 11.8 16.9 17.7 25.3 13.5 20.3 28.7 39.7 40.5 61.6 8.4 16 13.5 34.6 19.4 52.3 8.4 26.2 16.9 51.5 25.3 77.6 5.9 19.7 11 39.7 15.2 59.9 3.4 13.5 2.5 27.9 6.7 41.4 5.1 17.7 0 37.1 5.1 54.9.8 1.7 1.7 4.2 2.5 5.9 3.4 3.4 5.9 6.7.8 11.8-.8.8-.8 4.2 0 6.7 1.7-1.7 2.5-3.4 4.2-5.9 0 1.7.8 2.5.8 3.4 0 3.4-.8 6.7 0 10.1 0 1.7 1.7 4.2 2.5 5.9 1.7-1.7 3.4-2.5 6.8-5.1 7.6 28.7 8.4 57.4 8.4 86.9 0 27.9 5.1 55.7-6.7 82.7 2.6-9.2-3.3-17.6-.8-26zM2408.3 1156.1zM2001.8 2315.8c-9.3 5.9-19.4 11.8-28.7 17.7.8.8.8 1.7 1.7 2.5 11.8-2.5 21.1-8.4 30.4-15.2-.9-1.7-2.6-3.4-3.4-5z"/><path style="fill:#dd3735" d="M170.4 1543.5c-.8 0-6.7 2.5-7.6 3.4 6.7 14.3 13.5 29.5 20.3 43.9.8 0 7.6-3.4 7.6-3.4-6.8-14.3-11-30.3-20.3-43.9zM1914.9 2355.4c3.4 7.6 10.1 8.4 21.1.8-6.7 0-13.5-.8-19.4-1.7-.9.1-.9.9-1.7.9zM376.4 1252.4c-3.4 2.5-5.9 5.9-9.3 8.4l-15.2 10.1c-8.4 7.6-16.9 14.3-26.2 21.9-5.9 9.3-11.8 17.7-18.6 28.7 10.1-2.5 12.7 1.7 11.8 10.1 11.8 1.7 12.7-7.6 16-14.3.8-1.7 1.7-5.1 3.4-5.9 7.6-6.7 16-12.7 24.5-19.4 1.7-1.7 1.7-5.1 1.7-7.6 0-.8-4.2-.8-6.7-1.7 7.6-8.4 18.6-22.8 26.2-32.1 4.2-2.5 8.4-5.9 8.4-8.4-.8-9.3 5.1-11.8 11.8-15.2-3.4-2.5-4.2-5.1-4.2-5.9.8-2.5 2.5-5.1 4.2-7.6 1.7 0 4.2-.8 4.2-.8 3.4-5.9 3.4-10.1 6.7-15.2-.8-.8-1.7-.8-2.5-1.7-5.1 3.4-10.1 7.6-15.2 11 1.7 1.7 1.7 2.5 1.7 4.2-6.7-.8-9.3 2.5-12.7 11.8-.8 2.5-5.1 3.4-9.3 6.7-.8 1.7-1.7 5.9-3.4 10.1l.8.8c-1.2 1.1-2.7 2-4.2 2.5-5.1 5.1-11 9.3-16 14.3-.8 2.5-1.7 5.1-1.7 7.6 5.9-5.9 16-16.9 23.6-23.6l.8.8c3.4-5.1 5.9-10.1 9.3-15.2.8.8.8 1.7 1.7 2.5-2.5 6.7-5.1 14.3-7.6 21.1-1.5 1.1-4 2.8-4 2zM459.9 1145.2c-.8-.8-7.6-2.5-8.4-3.4-10.1 11.8-19.4 23.6-28.7 35.4 1.7.8 4.2 6.8 5.9 8.4 9.3-12.5 21.9-28.6 31.2-40.4zM383.1 1209.4c5.1-7.6 10.1-16 15.2-23.6-1.7-.8-2.5-1.7-3.4-2.5-5.1 7.6-17.7 21.1-22.8 28.7.9.7 10.2-3.5 11-2.6z"/></svg>