<svg version="1.0" xmlns="http://www.w3.org/2000/svg" width="176" height="268" viewBox="0 0 132 201"><path d="M110.2 23.2c-51.4 75.3-90 136-105.3 165.4-4.3 8.3-4.8 9.9-3.6 11.1.7.7 2.1 1.1 2.9.8.9-.4 6-6.6 11.4-13.8 5.4-7.3 9.9-13.4 10.1-13.6.1-.2.9.2 1.7.9 3.1 2.4 16.2-12.4 56.1-63.5C99 90.7 121.8 63 122.6 63c.7 0 1.6-1.5-17.4 28.5-9.1 14.3-21.9 34-28.4 43.8-11.2 16.8-13 20.7-9.4 20.7 1.5 0 21.2-29.2 44.5-66C129.8 61.8 131 59.7 131 56.1c0-10.7-11.8.8-47.5 46.4C62.3 129.7 46 150 45.5 150c-.8 0 3.8-6.7 33-48.5 43.9-62.8 48-69.5 42.7-69.5-1 0-3 1.2-4.4 2.7-8 8.6-40.6 54-65.4 91.4-15.7 23.6-29 43.1-29.5 43.5-1.3.8 26-44.4 39.3-65 6-9.3 22.1-33.2 35.7-53 32.8-47.8 32.9-47.9 32.4-49.4-1.3-3.7-4.6-.1-19.1 21z"/></svg>