<svg width="53" height="81" fill="none" xmlns="http://www.w3.org/2000/svg"><path d="M51.048 1.17C40.45 17.16 29.052 32.498 19.038 48.864 13.28 58.27-3.92 86.412 2.914 77.756 14.15 63.53 23.347 47.431 33.901 32.67c4.09-5.72 8.351-11.274 12.669-16.82 1.661-2.135 3.251-3.634.901-.04-10.488 16.04-22.052 31.345-32.61 47.346-1.126 1.708-4.203 6.918-2.732 5.495 5.388-5.214 9.959-11.507 14.636-17.323 5.633-7.004 10.89-14.391 16.865-21.112 2.146-2.415 4.44-5.983 7.062-7.871 4.637-3.342-4.926 10.337-7.876 15.233-4.91 8.148-10.544 15.906-15.625 23.946" stroke="#F2F2F2" stroke-width="2" stroke-linecap="round"/></svg>