<svg version="1.1" id="Layer_1" xmlns="http://www.w3.org/2000/svg" x="0" y="0" viewBox="0 0 623 696.7" style="enable-background:new 0 0 623 696.7" xml:space="preserve"><style>.st0{fill:#087ea4}.st1{fill:#fff}</style><path class="st0" d="M314.6 43.8c.8.1 1.7.3 2.5.5-.8-.3-1.6-.4-2.5-.5zM379.6 466l8.7-5.1-8.7 5.1c-2.9 1.7-5.7 3.3-8.6 4.9 2.9-1.6 5.8-3.2 8.6-4.9z"/><path class="st1" d="M611.8 431.7c-10.6-26-28.6-54-52-80.8l-3.2-3.7c1.6-1.8 3.1-3.6 4.7-5.3 39.7-46.3 61.6-92.3 61.6-129.5 0-14.6-3.3-27.6-9.7-38.8-12-20.8-35.1-34.9-66.9-41-28.7-5.5-64.5-4.4-103.5 3.2-2.9.6-5.9 1.2-8.9 1.8-.1-.4-.3-.9-.4-1.3C405 51 359.3 0 311 0c-24 0-47.8 13-69 37.5-19.1 22.1-36 53.7-48.9 91.2-1 2.8-1.9 5.7-2.9 8.6-.5-.1-.9-.2-1.4-.3-88.1-18-155.2-3.8-179.3 38C3.3 185.8.1 198.4 0 212.3c-.2 37 21.8 82.9 62.2 129.1 2 2.3 4 4.5 6 6.7-2.9 3.1-5.6 6.2-8.3 9.3C21.6 402 .3 446.4 0 482.6c-.1 14.7 3.2 28 9.7 39.4 12.3 21.3 36.1 36 69 42.5 30 6 66.8 5 106.4-2.8 1.8-.3 3.5-.7 5.2-1.1.7 2.3 1.5 4.5 2.2 6.8l.3.9c.3.9.6 1.8.9 2.8 12.9 36.8 29.7 67.7 48.8 89.3 21 23.8 44.7 36.4 68.6 36.4 24.6 0 49.2-13.3 71.3-38.5 20.2-23 37.7-55.4 50.8-93.6.6-1.7 1.1-3.4 1.7-5.1 3.6.8 7.2 1.5 10.8 2.2 38.3 7.2 73.5 8 101.7 2.3 31.1-6.3 53.9-20.6 65.8-41.3 2.9-5 5.2-10.6 6.8-16.4 5.9-21.1 3.1-46.9-8.2-74.7zm-6.2 70.6c-1.3 4.6-3.1 8.9-5.4 12.9-20 34.7-78.3 45.6-151.7 31.7-8-1.5-15.9-3.3-23.8-5.2-1.8 6.2-3.7 12.2-5.6 18.1-25.1 73.5-66.5 121.9-107.8 122-40 0-78.6-45-103.2-115.6-.4-1.2-.8-2.3-1.2-3.5-1.3-3.8-2.5-7.6-3.7-11.5-.8-2.7-1.7-5.5-2.5-8.3-6.1 1.5-12.3 2.9-18.4 4.1-76.2 15-138.8 3.3-159.5-32.5-5.3-9.2-7.8-19.9-7.7-31.7.3-32.7 20.4-73.9 56.3-115.5 5.5-6.3 11.3-12.7 17.5-19.1-5.2-5.4-10.4-11-15.3-16.7-37.6-43-58.8-85.7-58.6-119.1.1-11.1 2.5-21.2 7.5-29.9 20.9-36.3 84.4-46.9 163.3-30.8 4.9 1 9.8 2.1 14.7 3.3 2.1-7.2 4.3-14.4 6.8-21.5C232 61.6 270.8 15 310.9 15c41.9 0 82.8 49.7 108.2 126.1 1.6 4.7 3.1 9.5 4.5 14.3l10.2-2.4c3.9-.9 7.8-1.7 11.7-2.5C520.3 136 580 146.3 600 181.1c5.2 9.1 7.7 19.6 7.7 31.3 0 33.6-20.9 76.5-58 119.8-1.6 1.9-3.3 3.8-4.9 5.6-2.8 3.2-5.8 6.4-8.8 9.5 2.1 2.2 4.1 4.3 6.1 6.5 2.1 2.3 4.2 4.6 6.2 6.9 45.6 52.1 67.4 105.2 57.3 141.6z"/><path class="st1" d="M515.7 327.6c2.8-2.9 5.4-5.8 8-8.6 1.4-1.6 2.9-3.2 4.3-4.9 43.1-50.1 60-97.1 47.5-118.7-12.1-21-60.4-29.3-124.4-16.9-6.6 1.3-13.4 2.8-20.3 4.5 6.5 29.1 11 58.6 13.5 88.3 25 17.1 48.8 35.9 71.4 56.3zM109.1 368.2c-5.6 5.8-11 11.6-16.3 17.7-41.8 48.4-57.6 93.3-45.5 114.3 10.2 12.7 25.1 20.6 41.4 21.9 29.3 4.4 59.1 3.3 88-3.1 5.6-1.1 11.2-2.4 16.8-3.8-6.7-29.8-11.5-60-14.2-90.4-24.6-17.3-48-36.2-70.2-56.6zM228.1 535.1c2.1 7.3 4.4 14.5 6.8 21.6 21.1 60.4 52.1 96.5 76.3 96.5a58.96 58.96 0 0 0 39.6-24.9c18.4-23.2 32.4-49.5 41.3-77.8 1.9-5.4 3.6-10.9 5.2-16.5-29-9-57.4-19.9-84.9-32.6-27.3 13.1-55.5 24.4-84.3 33.7zM46.9 197.3c.1-.2.2-.4.3-.5-.1.1-.2.3-.3.5zM396.1 163c-1.3-4.3-2.6-8.7-4-13C370.2 84 336.7 43.4 311 43.4c-24.2 0-55.6 37.7-76.8 99.4-2.2 6.6-4.3 13.2-6.2 19.8 28.7 9 56.7 19.9 84 32.7 27.2-12.5 55.4-23.3 84.1-32.3zm-79-118.8c-.8-.2-1.7-.4-2.5-.5.9.2 1.7.3 2.5.5zM515.8 367.5c-22.4 20.7-46.2 39.8-71.2 57.2-.1 1.7-.3 3.5-.4 5.2v.4c-2.4 28.2-6.5 56.2-12.4 83.8.1-.6.2-1.1.3-1.7-.1.6-.2 1.1-.3 1.7 7.6 1.9 15 3.5 22.2 4.8l6.6 1.2c-.3 0-.5-.1-.8-.1 12.8 2.2 24.8 3.5 36 4 1.4.1 2.7.1 4 .1.6 0 1.3 0 1.9.1 2 0 3.9.1 5.8.1 35.1-.1 59.8-8.8 68.1-23.3 5.9-15.2 5.2-32.1-1.8-46.8-10.9-27.5-26.7-52.8-46.8-74.6-3.5-4-7.2-8.1-11.2-12.1zM495.4 347.6c-15.5-14-31.8-27.2-48.7-39.6.6 13.4.9 26.8.9 40.3 0 13.2-.2 26.4-.8 39.6 16.9-12.6 33.1-26 48.6-40.3zM129.6 348.3c14.3 13.3 30.2 26.5 47.2 39.4a858.838 858.838 0 0 1 0-78.6c-17.1 12.8-32.9 26-47.2 39.2zM416.9 287.2c-16.9-11.2-34.1-21.9-51.6-32-17.5-10.1-35.3-19.5-53.5-28.4-18.3 8.8-36.2 18.3-53.8 28.4-17.5 10.1-34.7 20.9-51.4 32.3-1.5 20.2-2.3 40.5-2.3 60.7 0 20.3.8 40.5 2.3 60.7 16.7 11.4 33.9 22.2 51.5 32.3 17.7 10.2 35.7 19.7 54.1 28.5 17.5-8.6 35.3-18.2 53.2-28.5 18-10.4 35.4-21.3 51.8-32.4 1.3-20.2 1.9-40.4 1.9-60.7 0-20.2-.8-40.6-2.2-60.9zm-75.7 112.2c-28.5 16.4-64.9 6.7-81.3-21.8-16.4-28.5-6.7-64.9 21.8-81.3 28.5-16.4 64.9-6.7 81.3 21.8 16.4 28.4 6.6 64.8-21.8 81.3zM220.8 190.3c-4.4 19.1-7.9 39.5-10.6 60.8 22.1-14.2 44.9-27.3 68.2-39.4-18.8-8.1-38-15.2-57.6-21.4z"/><path class="st1" d="M109.2 328.4c22.1-20.3 45.6-39.2 70.1-56.5 2.7-30 7.4-59.9 14-89.3-4.5-1.1-8.9-2.1-13.3-3-68.1-14-120-5.3-132.9 17.1-.1.2-.2.4-.3.5-.2.4-.5.9-.7 1.3-.1.2-.2.5-.3.8v.1c-.3.7-.6 1.4-.8 2.1-.1.4-.2.8-.4 1.2-.1.3-.2.7-.3 1l-.3 1.2c-.1.4-.1.7-.2 1.1-.1.5-.1.9-.2 1.4-.1.4-.1.8-.1 1.2-.1.7-.1 1.5-.2 2.2v3.8c0 .5 0 1 .1 1.5 0 .4 0 .8.1 1.2 0 .5.1 1.1.2 1.6 0 .4.1.8.1 1.1.1.9.2 1.8.4 2.7.1.4.1.8.2 1.2l.3 1.8c.1.4.2.9.3 1.3.1.6.3 1.2.4 1.8.1.4.2.8.3 1.3.2.7.4 1.5.6 2.3.1.3.2.6.2.9.3 1 .6 2.1 1 3.1.1.4.3.7.4 1.1.3.7.5 1.5.8 2.3.1.4.3.8.5 1.2 1.3 3.4 2.7 6.9 4.4 10.6.1.3.3.6.5 1 .4.9.9 1.9 1.3 2.8.2.3.3.7.5 1 .5 1 1 2 1.6 3.1.1.2.2.4.4.7 1.4 2.6 2.8 5.2 4.4 7.9.1.2.3.5.4.7.7 1.1 1.3 2.3 2 3.4.1.2.3.5.4.7 2.5 4.1 5.3 8.3 8.3 12.6l.1.1c.1.1.2.2.2.3.9 1.3 1.9 2.6 2.8 4 .1.1.1.2.2.3v.1c3.2 4.4 6.6 8.8 10.2 13.3.1.1.2.2.2.3 2.4 3 5 6 7.6 9 4.9 5.3 9.6 10.4 14.5 15.5zM250.4 469.8c-2.2-1.2-4.3-2.4-6.5-3.7-11.4-6.5-22.6-13.3-33.6-20.4 2.7 21.6 6.3 42.4 10.7 61.8 19.8-6.4 39.2-13.8 58.2-22.2-9.8-5-19.3-10.2-28.8-15.5zM345.5 484.8c20 8.4 39.8 15.7 58.7 21.5 4.3-20.2 7.6-40.7 9.8-61.3-11.2 7.1-22.6 14.1-34.4 20.9-11.4 6.7-22.8 13-34.1 18.9zm42.8-23.9-8.7 5.1 8.7-5.1zM379.5 230.6c11.4 6.6 22.8 13.4 34 20.5-2.4-20.3-5.8-40.4-10.2-60.4-18.8 5.8-38.2 12.9-58 21.2 11.5 5.9 22.9 12.2 34.2 18.7z"/><path class="st0" d="M548.5 360.9c-2-2.3-4.1-4.6-6.2-6.9-2-2.2-4-4.3-6.1-6.5 3-3.2 6-6.4 8.8-9.5 1.7-1.9 3.3-3.8 4.9-5.6 37.1-43.2 58-86.1 58-119.8 0-11.7-2.5-22.3-7.7-31.3-20.1-34.8-79.8-45.1-154.5-30.6-3.9.8-7.8 1.6-11.7 2.5l-10.2 2.4c-1.4-4.8-2.9-9.6-4.5-14.3C393.8 64.7 352.8 15 310.9 15c-40.1 0-78.9 46.6-103.7 118.6-2.4 7.1-4.7 14.3-6.8 21.5-4.9-1.2-9.8-2.3-14.7-3.3-78.9-16.2-142.4-5.5-163.3 30.8-5 8.7-7.5 18.8-7.5 29.9-.2 33.4 21 76.1 58.5 119.2 5 5.7 10.1 11.2 15.3 16.7-6.2 6.4-12 12.7-17.5 19.1-35.9 41.6-56 82.8-56.3 115.5-.1 11.8 2.4 22.5 7.7 31.7C43.4 550.3 106 562 182.2 547c6.2-1.2 12.3-2.6 18.4-4.1.8 2.8 1.6 5.5 2.5 8.3 1.2 3.8 2.4 7.7 3.7 11.5.4 1.2.8 2.3 1.2 3.5 24.6 70.6 63.2 115.6 103.2 115.6 41.3 0 82.7-48.4 107.8-122 2-5.8 3.9-11.8 5.6-18.1 7.9 2 15.8 3.7 23.8 5.2 73.4 13.9 131.8 3 151.7-31.7 2.3-4 4.1-8.3 5.4-12.9 10.2-36.4-11.6-89.5-57-141.4zM87.3 303.8c-.1-.1-.2-.2-.2-.3-3.6-4.5-7.1-8.9-10.2-13.3v-.1c-.1-.1-.1-.2-.2-.3-1-1.3-1.9-2.6-2.8-4-.1-.1-.2-.2-.2-.3l-.1-.1c-3-4.3-5.7-8.5-8.3-12.6-.1-.2-.3-.5-.4-.7-.7-1.1-1.4-2.3-2-3.4-.1-.2-.3-.5-.4-.7-1.6-2.7-3-5.3-4.4-7.9-.1-.2-.2-.5-.4-.7-.5-1-1.1-2.1-1.6-3.1-.2-.3-.3-.7-.5-1-.5-.9-.9-1.9-1.3-2.8-.2-.3-.3-.6-.5-1-1.7-3.6-3.1-7.1-4.4-10.6-.2-.4-.3-.8-.5-1.2-.3-.8-.5-1.5-.8-2.3-.1-.4-.3-.8-.4-1.1-.3-1.1-.7-2.1-1-3.1-.1-.3-.2-.6-.2-.9-.2-.8-.4-1.5-.6-2.3-.1-.4-.2-.9-.3-1.3-.1-.6-.3-1.2-.4-1.8-.1-.4-.2-.9-.3-1.3l-.3-1.8c-.1-.4-.1-.8-.2-1.2-.1-.9-.3-1.8-.4-2.7 0-.4-.1-.8-.1-1.1-.1-.5-.1-1.1-.2-1.6 0-.4-.1-.8-.1-1.2 0-.5 0-1-.1-1.5v-3.8c0-.7.1-1.5.2-2.2 0-.4.1-.8.1-1.2.1-.5.1-.9.2-1.4.1-.4.1-.7.2-1.1l.3-1.2c.1-.3.2-.7.3-1 .1-.4.2-.8.4-1.2.2-.7.5-1.4.8-2.1v-.1c.1-.3.2-.5.3-.8.2-.4.4-.9.7-1.3.1-.2.2-.4.3-.5-.1.2-.2.4-.3.5.1-.2.2-.4.3-.5 12.9-22.3 64.8-31 132.9-17.1 4.3.9 8.8 1.9 13.3 3-6.6 29.4-11.3 59.2-14 89.3-24.6 17.3-48 36.1-70.1 56.5-4.9-5-9.6-10.2-14.2-15.5-2.9-3-5.4-6-7.9-9zm89.5 83.9c-17-12.9-32.8-26.1-47.2-39.4 14.3-13.2 30.2-26.3 47.2-39.2-.6 13.1-.9 26.2-.9 39.3-.1 13.1.2 26.2.9 39.3zm-.1 131.3c-28.9 6.4-58.7 7.5-88 3.1-16.2-1.3-31.2-9.2-41.4-21.9-12.1-21 3.7-65.9 45.5-114.3 5.2-6.1 10.7-12 16.3-17.7 22.1 20.4 45.6 39.4 70.2 56.7 2.7 30.4 7.5 60.6 14.2 90.4-5.5 1.3-11.1 2.6-16.8 3.7zm236.8-268c-11.2-7-22.5-13.9-34-20.5-11.3-6.5-22.7-12.7-34.2-18.7 19.8-8.3 39.2-15.4 58-21.2 4.3 20 7.8 40.1 10.2 60.4zM234.1 142.8c21.2-61.7 52.6-99.4 76.8-99.4 25.8 0 59.2 40.6 81.1 106.6 1.4 4.3 2.8 8.6 4 13-28.8 8.9-56.9 19.7-84.2 32.4-27.2-12.8-55.3-23.7-84-32.7 2-6.7 4.1-13.3 6.3-19.9zm-13.3 47.5c19.6 6.2 38.8 13.3 57.7 21.4-23.4 12.1-46.1 25.2-68.2 39.4 2.6-21.3 6.2-41.7 10.5-60.8zm-10.5 255.4c11 7.1 22.2 13.9 33.6 20.4 2.2 1.2 4.3 2.5 6.5 3.7 9.5 5.4 19.1 10.5 28.8 15.5-19 8.4-38.4 15.8-58.2 22.2-4.4-19.5-8-40.2-10.7-61.8zm181.8 104.8c-8.9 28.2-22.9 54.6-41.3 77.8a58.96 58.96 0 0 1-39.6 24.9c-24.3 0-55.3-36.2-76.3-96.5-2.5-7.1-4.8-14.3-6.8-21.6 28.8-9.3 57-20.5 84.3-33.7 27.6 12.7 55.9 23.6 84.9 32.6-1.6 5.5-3.3 11-5.2 16.5zm12.1-44.1c-19-5.9-38.7-13.1-58.7-21.5 11.3-6 22.7-12.2 34.2-18.8 11.8-6.8 23.2-13.8 34.4-20.9-2.3 20.5-5.6 40.9-9.9 61.2zm13-97.4c-16.4 11.1-33.8 22-51.8 32.4-18 10.4-35.8 19.9-53.2 28.5-18.4-8.8-36.4-18.3-54.1-28.5-17.6-10.1-34.7-20.9-51.5-32.3-1.5-20.2-2.3-40.5-2.3-60.7 0-20.3.7-40.5 2.3-60.7 16.7-11.4 33.9-22.2 51.4-32.3 17.6-10.1 35.5-19.6 53.8-28.4 18.1 8.8 36 18.3 53.5 28.4 17.6 10.1 34.8 20.7 51.6 32 1.5 20.3 2.2 40.7 2.2 61.1 0 20-.6 40.2-1.9 60.5zM451 178.5c64-12.5 112.3-4.1 124.4 16.9 12.5 21.6-4.5 68.6-47.5 118.7-1.4 1.6-2.8 3.2-4.3 4.9-2.5 2.9-5.2 5.7-8 8.6-22.5-20.4-46.4-39.2-71.5-56.3-2.5-29.7-7-59.2-13.5-88.3 7-1.7 13.7-3.2 20.4-4.5zM446.6 308c16.9 12.3 33.2 25.6 48.7 39.6-15.5 14.3-31.7 27.7-48.6 40.3.5-13.2.8-26.4.8-39.6.1-13.5-.3-26.9-.9-40.3zm129 193c-8.3 14.5-33.1 23.1-68.1 23.3-1.9 0-3.8 0-5.8-.1-.6 0-1.3 0-1.9-.1-1.3 0-2.7-.1-4-.1-11.2-.5-23.3-1.8-36-4 .3 0 .5.1.8.1l-6.6-1.2c-7.2-1.4-14.6-3-22.2-4.8.1-.6.2-1.1.3-1.7-.1.6-.2 1.1-.3 1.7 5.9-27.6 10.1-55.6 12.4-83.8v-.4c.1-1.7.3-3.5.4-5.2 25-17.4 48.8-36.5 71.2-57.2 3.9 4.1 7.7 8.1 11.2 12.2 20 21.8 35.9 47.1 46.8 74.6 7 14.6 7.7 31.5 1.8 46.7z"/><path class="st0" d="M281.6 296.3c-28.5 16.4-38.2 52.8-21.8 81.3 16.4 28.5 52.8 38.2 81.3 21.8 28.5-16.4 38.2-52.8 21.8-81.3-16.4-28.5-52.8-38.3-81.3-21.8z"/></svg>