<svg xmlns="http://www.w3.org/2000/svg" viewBox="0 0 653.5 440.7" style="enable-background:new 0 0 653.5 440.7" xml:space="preserve"><path style="fill:#fff" d="m633.7 237.6-.4-.6c-18.8-28.5-47.6-47.9-114.3-76.6-33.3-14.4-40.5-20.1-44-27.4l-.3-.5c-1.5-2.8-2.2-5.9-2.1-9v-.6c0-6.5 1.8-11.5 5.5-14.9 4.7-4.4 12.8-6.5 22.6-5.8h.5c12.2.4 23.2 7 29.3 17.6l.5.9c1.6 2.4 4 5.7 6.5 8.5 9.8 10.6 19.1 6.3 21.8 4.6 11-6.8 26.5-16.8 40.3-26.1 6.6-4.4 12.1-8.2 16.1-11.1 2.2-1.6 3.9-2.9 5.2-3.8 6.1-4.8 8.4-10.5 6.9-16.8l-.5-2.1-1.1-1.9c-6.5-11.4-14.4-22-23.4-31.5-17-18.1-38.8-30.7-63.1-36.3l-1.7-.4h-.4c-23.3-4.1-46.9-4.8-70.4-2h-.3c-51.1 7-92.8 45.6-103.7 96L363 99c-2.7 20.5-2.2 41.2 1.7 61.5l.1.7.2.7c5.4 18.4 14.9 35.7 27.5 50.1l.8.8c25 24.5 55.7 43.4 88.8 54.7 35 15.2 49.2 23.1 54.1 30.1 6.1 9.1 5.1 21.2-2.3 29.2-20.8 13.7-47.2 14.9-69.2 3-11.5-7.4-21.2-16.8-29.1-27.9l-13.2-19.3-37.6 22c-13.4 7.8-28.5 16.4-32.8 18.9-3.4 1.9-6.7 4-9.8 6.3l-10.1 7.5 5.6 11.2c6.8 13.6 15.3 26.2 25.4 37.6l.5.5c26.8 27.4 60.9 45.2 98.7 51.4l.4.1c12.8 1.7 25.7 2.6 38.7 2.6 10.9 0 21.8-.6 32.6-1.8 48.5-4.4 90.8-34.7 110.5-79.2l.4-1.1c14.6-40.2 10.3-84.3-11.2-121zm-2.6 115.9c-17.5 39.6-55.2 66.5-98.3 70.4-22.5 2.6-45.2 2.3-67.7-.7-34.4-5.7-66.1-22.2-90.4-47.1-9.2-10.3-17-21.9-23.2-34.3 2.6-1.9 5.3-3.7 8.2-5.2 4-2.2 18.9-10.9 33-19l25.6-15 5.4 7.8c9 12.9 20.5 23.9 33.8 32.3 27.3 15 60.8 13.3 86.4-4.4 13.4-13.1 15.5-33.9 5-49.3-6.9-9.9-21-18.2-61.1-35.5-31.4-10.6-60-28.2-83.7-51.4-11.3-12.9-19.6-28-24.4-44.4-3.5-18.7-4.1-37.8-1.5-56.7 9.6-44.5 46-78.2 91.1-84.4 22.4-2.7 45.1-2 67.3 2.1 21.3 5 40.6 16.1 55.6 32 8.2 8.6 15.4 18.2 21.3 28.6.3 1.1-38.3 27.1-61.8 41.5-.8.6-4.2-3.1-8-8.8-8.7-14.9-24.5-24.4-41.7-25-26.9-1.8-44.3 12.2-44.1 35.8-.2 5.8 1.1 11.5 3.8 16.7 5.9 12.2 16.9 19.6 51.5 34.6 63.6 27.4 90.9 45.4 107.8 71.1 19 32.8 22.8 72.5 10.1 108.3zM342.7 18.6l-.2.2-.2-14.1-170-.6c-41.9-.1-81 0-110 .1-14.5.1-25.9.2-33.8.3-4.1.1-7.3.1-9.5.2-4.4.1-10.5.3-15 6.2l-2.5 3.4-.3 4.3c-1 12.7-1.4 25.5-1 38v50.5H116v328.6h111.6V107.1h115.9l-.8-88.5zM212.5 92.1v328.7h-81.6V92.2H15.1V56.5c-.3-12.2 0-24.5 1-36.6.4-.6 70.8-.9 156.1-.7l155.3.4.5 36.2.3 36.3H212.5z"/><path style="fill:#007acc" d="M513 174.1c-34.5-15-45.6-22.3-51.5-34.6-2.7-5.1-4.1-10.9-3.8-16.7-.1-23.6 17.2-37.7 44.1-35.8 17.3.6 33 10.1 41.7 25 3.8 5.7 7.2 9.3 8 8.8 23.4-14.5 62-40.4 61.8-41.5-5.9-10.3-13.1-20-21.3-28.6-15-15.9-34.3-27.1-55.6-32-22.2-4.1-44.9-4.8-67.3-2.1C424 22.8 387.6 56.5 378 101c-2.5 18.9-2 38 1.5 56.7 4.8 16.4 13.1 31.6 24.4 44.4 23.7 23.2 52.3 40.8 83.7 51.4 40.1 17.4 54.2 25.7 61.1 35.5 10.5 15.5 8.4 36.3-5 49.3-25.7 17.7-59.1 19.4-86.4 4.4-13.3-8.4-24.7-19.4-33.8-32.3l-5.4-7.8-25.6 15c-14.1 8.2-29 16.8-33 19-2.8 1.5-5.6 3.3-8.2 5.2 6.2 12.4 14 23.9 23.2 34.3 24.3 24.9 56 41.5 90.4 47.1 22.5 3 45.2 3.3 67.7.7 43.1-3.9 80.8-30.8 98.3-70.4 12.7-35.9 8.9-75.5-10.4-108.3-16.6-25.6-43.9-43.7-107.5-71.1zM328 55.8l-.5-36.2-155.3-.4c-85.3-.2-155.7.1-156.1.6-1 12.2-1.3 24.4-1 36.6v35.7h115.8v328.6h81.6V92.1h115.8l-.3-36.3z"/></svg>